<svg width="48" height="49" viewBox="0 0 48 49" fill="none" xmlns="http://www.w3.org/2000/svg">
<path d="M33.396 32.1947H41.0449C42.2043 32.1947 43.1304 33.118 43.1304 34.245V41.8797C43.1304 43.0068 42.2043 43.9301 41.0449 43.9301H33.396C32.2366 43.9301 31.3105 43.0068 31.3105 41.8797V34.245C31.3105 33.118 32.2366 32.1947 33.396 32.1947Z" fill="white" stroke="#062943"/>
<path d="M6.71557 5.06995H18.4616C19.6198 5.06995 20.547 5.99433 20.547 7.12028V18.8208C20.547 19.9468 19.6198 20.8712 18.4616 20.8712H6.71557C5.55734 20.8712 4.63013 19.9468 4.63013 18.8208V7.12028C4.63013 5.99433 5.55734 5.06995 6.71557 5.06995Z" fill="white" stroke="#062943"/>
<path d="M10.7549 32.1947H18.4038C19.5632 32.1947 20.4893 33.118 20.4893 34.245V41.8797C20.4893 43.0068 19.5632 43.9301 18.4038 43.9301H10.7549C9.59554 43.9301 8.66943 43.0068 8.66943 41.8797V34.245C8.66943 33.118 9.59554 32.1947 10.7549 32.1947Z" fill="white" stroke="#062943"/>
<path d="M33.6355 9.38025H41.2844C42.4438 9.38025 43.3699 10.3035 43.3699 11.4306V19.0653C43.3699 20.1923 42.4438 21.1156 41.2844 21.1156H33.6355C32.4762 21.1156 31.55 20.1923 31.55 19.0653V11.4306C31.55 10.3035 32.4762 9.38025 33.6355 9.38025Z" fill="white" stroke="#062943"/>
<path d="M6.71554 0.995972H18.4615C21.8924 0.995972 24.6771 3.75257 24.6771 7.12031V18.8209C24.6771 22.1886 21.8924 24.9452 18.4615 24.9452H6.71554C3.28465 24.9452 0.5 22.1886 0.5 18.8209V7.12031C0.5 3.75257 3.28465 0.995972 6.71554 0.995972ZM18.4615 21.8712C20.1602 21.8712 21.547 20.513 21.547 18.8209V7.12031C21.547 5.42814 20.1602 4.06998 18.4615 4.06998H6.71554C5.01685 4.06998 3.6301 5.42814 3.6301 7.12031V18.8209C3.6301 20.513 5.01685 21.8712 6.71554 21.8712H18.4615Z" fill="#062943" stroke="#062943"/>
<path d="M33.6355 5.30627H41.2844C44.7153 5.30627 47.4999 8.06287 47.4999 11.4306V19.0653C47.4999 22.4331 44.7153 25.1897 41.2844 25.1897H33.6355C30.2046 25.1897 27.4199 22.4331 27.4199 19.0653V11.4306C27.4199 8.06287 30.2046 5.30627 33.6355 5.30627ZM41.2844 22.1156C42.9831 22.1156 44.3698 20.7575 44.3698 19.0653V11.4306C44.3698 9.73844 42.9831 8.38029 41.2844 8.38029H33.6355C31.9368 8.38029 30.55 9.73844 30.55 11.4306V19.0653C30.55 20.7575 31.9368 22.1156 33.6355 22.1156H41.2844Z" fill="#062943" stroke="#062943"/>
<path d="M10.7548 28.1207H18.4038C21.8347 28.1207 24.6193 30.8773 24.6193 34.2451V41.8798C24.6193 45.2475 21.8347 48.0041 18.4038 48.0041H10.7548C7.32395 48.0041 4.53931 45.2475 4.53931 41.8798V34.2451C4.53931 30.8773 7.32395 28.1207 10.7548 28.1207ZM18.4038 44.9301C20.1025 44.9301 21.4892 43.5719 21.4892 41.8798V34.2451C21.4892 32.5529 20.1025 31.1947 18.4038 31.1947H10.7548C9.05616 31.1947 7.6694 32.5529 7.6694 34.2451V41.8798C7.6694 43.5719 9.05616 44.9301 10.7548 44.9301H18.4038Z" fill="#062943" stroke="#062943"/>
<path d="M33.396 28.1207H41.0449C44.4758 28.1207 47.2604 30.8773 47.2604 34.2451V41.8798C47.2604 45.2475 44.4758 48.0041 41.0449 48.0041H33.396C29.9651 48.0041 27.1804 45.2475 27.1804 41.8798V34.2451C27.1804 30.8773 29.9651 28.1207 33.396 28.1207ZM41.0449 44.9301C42.7436 44.9301 44.1303 43.5719 44.1303 41.8798V34.2451C44.1303 32.5529 42.7436 31.1947 41.0449 31.1947H33.396C31.6973 31.1947 30.3105 32.5529 30.3105 34.2451V41.8798C30.3105 43.5719 31.6973 44.9301 33.396 44.9301H41.0449Z" fill="#062943" stroke="#062943"/>
</svg>
