<svg width="48" height="49" viewBox="0 0 48 49" fill="none" xmlns="http://www.w3.org/2000/svg">
<path d="M24.4557 45.0819C35.6717 45.0819 44.7641 35.9895 44.7641 24.7735C44.7641 13.5575 35.6717 4.46509 24.4557 4.46509C13.2397 4.46509 4.14734 13.5575 4.14734 24.7735C4.14734 35.9895 13.2397 45.0819 24.4557 45.0819Z" fill="white"/>
<path d="M24 47C11.8678 47 2 37.1322 2 25C2 12.8678 11.8678 3 24 3C36.1322 3 46 12.8678 46 25C46 37.1322 36.1322 47 24 47ZM24 7.17774C14.1739 7.17774 6.17774 15.1739 6.17774 25C6.17774 34.8261 14.1739 42.8223 24 42.8223C33.8261 42.8223 41.8223 34.8261 41.8223 25C41.8223 15.1739 33.8261 7.17774 24 7.17774Z" fill="#062943" stroke="#062943"/>
<path d="M22.8333 36.5228L9.39771 23.9805L12.5059 20.6534L22.5508 30.0237L36 15L38.5 18.5L22.8333 36.5228Z" fill="#062943"/>
</svg>
