<svg width="249" height="160" viewBox="0 0 249 160" fill="none" xmlns="http://www.w3.org/2000/svg">
<g clip-path="url(#clip0_61_113)">
<path d="M246.728 60.8856H125.27V117.183H246.728V60.8856Z" fill="white"/>
<path d="M229.37 55.6361H144.963C141.628 55.6361 138.924 58.3398 138.924 61.675V83.7708C138.924 87.1059 141.628 89.8096 144.963 89.8096H229.37C232.706 89.8096 235.41 87.1059 235.41 83.7708V61.675C235.41 58.3398 232.706 55.6361 229.37 55.6361Z" fill="#C4D3ED"/>
<path d="M245.137 52.3342C245.137 47.8742 243.898 46.6359 239.434 46.6359C204.074 46.6359 168.717 46.6359 133.357 46.6359C132.824 46.6359 132.287 46.6159 131.758 46.652C129.305 46.8323 127.867 48.2949 127.758 50.7714C127.698 52.1018 127.734 53.4362 127.734 54.7666C127.734 56.8797 128.763 57.9363 130.82 57.9363C149.368 57.9363 167.912 57.9363 186.46 57.9363C205.007 57.9363 223.419 57.9363 241.898 57.9363C242.5 57.9363 243.181 58.1086 243.678 57.8802C244.247 57.6157 244.988 57.0427 245.061 56.5217C245.257 55.1513 245.137 53.7327 245.133 52.3342H245.137Z" fill="#052943"/>
<path d="M237.762 117.091C213.604 117.099 180.56 117.079 156.402 117.135C156.393 118.393 156.381 119.655 156.357 120.914H237.742C237.758 119.639 237.762 118.365 237.766 117.091H237.762Z" fill="black"/>
<path d="M245.152 61.9395V91.0199C246.158 91.1401 247.237 91.0119 248.262 91.0079C248.511 91.0079 248.755 90.9918 249 90.9678C249 90.531 249 90.1223 249 89.7135C249 76.9225 249 64.1275 248.988 51.3364C248.98 46.1191 245.706 42.7891 240.54 42.7851C204.446 42.773 168.356 42.777 132.263 42.7851C127.173 42.7851 123.919 46.075 123.907 51.1842C123.891 57.5116 123.903 63.843 123.907 70.1744C123.907 70.7073 123.762 71.3645 124.015 71.7372C124.3 72.1579 124.748 72.6268 125.201 72.8392C125.334 72.8993 125.466 72.9433 125.594 72.9554C126.151 72.9994 126.977 72.4945 127.293 71.9896C127.642 71.4286 127.622 70.5911 127.63 69.8698C127.662 67.2331 127.642 64.5963 127.642 61.9355H245.156L245.152 61.9395ZM127.758 50.7674C127.866 48.291 129.305 46.8283 131.758 46.648C132.291 46.6079 132.824 46.632 133.357 46.632C168.717 46.632 204.073 46.632 239.433 46.632C243.898 46.632 245.132 47.8702 245.136 52.3302C245.136 53.7288 245.261 55.1473 245.064 56.5178C244.988 57.0387 244.251 57.6117 243.682 57.8762C243.185 58.1046 242.503 57.9323 241.902 57.9323C223.423 57.9323 204.943 57.9323 186.463 57.9323C167.984 57.9323 149.372 57.9323 130.824 57.9323C128.767 57.9323 127.738 56.8758 127.738 54.7626C127.738 53.4282 127.702 52.0938 127.762 50.7674H127.758Z" fill="black"/>
<path d="M210.586 156.161C209.845 155.849 209.051 155.917 208.234 156.013C206.482 156.225 205.5 155.7 205.284 153.789C205.128 152.418 204.595 151.092 204.254 149.738C203.196 145.506 202.15 141.27 201.072 136.935C201.669 136.802 202.042 136.646 202.418 136.646C211.071 136.634 228.617 136.646 237.27 136.614C237.33 135.412 237.39 134.214 237.438 133.011C237.382 133.011 237.326 133.011 237.27 133.011C213.472 133.011 180.789 133.011 156.991 133.011C156.766 133.011 156.562 133.011 156.374 133.011C156.374 134.21 156.321 135.404 156.141 136.594C156.181 136.594 156.213 136.594 156.253 136.594C160.654 136.682 165.058 136.618 169.463 136.63C170.108 136.63 170.753 136.718 171.37 136.762C171.455 137.139 171.575 137.347 171.531 137.516C170.088 143.382 168.653 149.249 167.122 155.091C167.018 155.496 166.196 155.889 165.659 155.965C164.417 156.145 163.086 155.937 161.908 156.277C161.255 156.466 160.489 157.419 160.598 158.117C160.89 160.016 164.072 159.904 165.415 159.932C177.947 160.192 190.523 159.72 203.06 159.72C205.124 159.72 207.188 159.728 209.247 159.728C210.045 159.728 211.275 159.363 211.832 158.738C212.606 157.868 211.724 156.838 210.951 156.358C210.831 156.281 210.71 156.221 210.586 156.169V156.161ZM170.95 155.805C172.092 151.2 173.182 146.764 174.296 142.34C175.205 138.736 177.522 136.935 181.25 136.935C185.915 136.935 190.583 136.89 195.248 136.987C195.942 136.999 197.1 137.524 197.24 138.033C198.871 143.843 200.346 149.702 201.929 155.805H170.946H170.95Z" fill="black"/>
<path d="M237.438 133.015C237.598 128.984 237.694 124.949 237.742 120.914H156.357C156.353 121.134 156.349 121.358 156.345 121.579C156.305 123.442 156.177 125.309 156.197 127.173C156.217 129.112 156.37 131.068 156.374 133.011C156.562 133.011 156.766 133.011 156.991 133.011C180.789 133.011 213.472 133.011 237.269 133.011C237.326 133.011 237.382 133.011 237.438 133.011V133.015Z" fill="#798A91"/>
<path d="M195.252 136.991C190.587 136.898 185.918 136.942 181.253 136.938C177.532 136.938 175.214 138.74 174.3 142.344C173.186 146.768 172.096 151.204 170.954 155.808H201.937C200.354 149.705 198.879 143.851 197.248 138.036C197.104 137.528 195.95 137.003 195.256 136.991H195.252Z" fill="#798A91"/>
<path d="M134.712 54.5021C135.918 54.5021 136.896 53.5244 136.896 52.3182C136.896 51.1121 135.918 50.1343 134.712 50.1343C133.505 50.1343 132.527 51.1121 132.527 52.3182C132.527 53.5244 133.505 54.5021 134.712 54.5021Z" fill="#FFE784"/>
<path d="M142.535 54.5021C143.741 54.5021 144.719 53.5244 144.719 52.3182C144.719 51.1121 143.741 50.1343 142.535 50.1343C141.328 50.1343 140.351 51.1121 140.351 52.3182C140.351 53.5244 141.328 54.5021 142.535 54.5021Z" fill="#FFE784"/>
<path d="M150.053 54.5021C151.26 54.5021 152.238 53.5244 152.238 52.3182C152.238 51.1121 151.26 50.1343 150.053 50.1343C148.847 50.1343 147.869 51.1121 147.869 52.3182C147.869 53.5244 148.847 54.5021 150.053 54.5021Z" fill="#FFE784"/>
<path d="M245.137 126.327C245.137 131.437 243.898 132.855 239.434 132.855C204.074 132.855 168.717 132.855 133.357 132.855C132.824 132.855 132.287 132.879 131.758 132.835C129.305 132.627 127.867 130.952 127.758 128.119C127.698 126.596 127.734 125.065 127.734 123.542C127.734 121.125 128.763 119.914 130.82 119.912C149.368 119.912 167.912 119.912 186.46 119.912C205.007 119.912 223.419 119.912 241.898 119.912C242.5 119.912 243.181 119.715 243.678 119.976C244.247 120.276 244.988 120.934 245.061 121.531C245.257 123.102 245.137 124.724 245.133 126.327H245.137Z" fill="#798A91"/>
<path d="M245.152 115.324V82.0157C246.158 81.8754 247.237 82.0237 248.262 82.0317C248.511 82.0317 248.755 82.0518 249 82.0758C249 82.5727 249 83.0415 249 83.5104C249 98.1607 249 112.815 248.988 127.465C248.98 133.444 245.706 137.259 240.54 137.259C204.446 137.271 168.356 137.267 132.263 137.259C127.173 137.259 123.919 133.488 123.907 127.642C123.891 120.393 123.903 73.9051 123.907 66.656C123.907 66.0469 123.762 65.2936 124.015 64.8648C124.3 64.3839 124.748 63.847 125.201 63.6025C125.334 63.5304 125.466 63.4823 125.594 63.4703C126.151 63.4182 126.977 63.9993 127.293 64.5803C127.642 65.2255 127.622 66.1832 127.63 67.0087C127.662 70.0301 127.642 112.286 127.642 115.332H245.156L245.152 115.324ZM127.758 128.119C127.866 130.952 129.305 132.631 131.758 132.835C132.291 132.879 132.824 132.855 133.357 132.855C168.717 132.855 204.073 132.855 239.433 132.855C243.898 132.855 245.132 131.437 245.136 126.327C245.136 124.725 245.261 123.102 245.064 121.531C244.988 120.934 244.251 120.277 243.682 119.976C243.185 119.716 242.503 119.912 241.902 119.912C223.423 119.912 204.943 119.912 186.463 119.912C167.984 119.912 149.372 119.912 130.824 119.912C128.767 119.912 127.738 121.122 127.738 123.542C127.738 125.069 127.702 126.596 127.762 128.123L127.758 128.119Z" fill="black"/>
<path d="M195.469 94.8909H140.11C139.305 94.8909 138.651 95.5439 138.651 96.3495V97.2792C138.651 98.0847 139.305 98.7378 140.11 98.7378H195.469C196.275 98.7378 196.928 98.0847 196.928 97.2792V96.3495C196.928 95.5439 196.275 94.8909 195.469 94.8909Z" fill="#C4D3ED"/>
<path d="M223.298 94.8909H211.792C210.987 94.8909 210.333 95.5439 210.333 96.3495V98.1848C210.333 98.9904 210.987 99.6434 211.792 99.6434H223.298C224.104 99.6434 224.757 98.9904 224.757 98.1848V96.3495C224.757 95.5439 224.104 94.8909 223.298 94.8909Z" fill="#C4D3ED"/>
<path d="M195.469 102.392H140.11C139.305 102.392 138.651 103.045 138.651 103.851V104.781C138.651 105.586 139.305 106.239 140.11 106.239H195.469C196.275 106.239 196.928 105.586 196.928 104.781V103.851C196.928 103.045 196.275 102.392 195.469 102.392Z" fill="#C4D3ED"/>
<path d="M115.747 91.8252C115.747 90.7392 114.857 89.8577 113.771 89.8577H108.786C107.7 89.8577 106.814 90.7392 106.81 91.8252C106.81 91.8533 106.81 91.8813 106.81 91.9054C106.81 109.685 106.81 127.465 106.81 145.245C106.81 145.598 106.81 145.915 106.814 146.195C106.826 147.277 107.704 148.151 108.79 148.151H113.767C114.845 148.151 115.727 147.285 115.743 146.207C115.743 145.895 115.747 145.538 115.747 145.129C115.747 127.417 115.747 109.701 115.747 91.9895C115.747 91.9334 115.747 91.8773 115.747 91.8212V91.8252Z" fill="#C4D3ED"/>
<path d="M115.403 85.8947C115.479 85.8947 115.515 81.4627 115.495 78.7979C115.487 77.712 114.605 76.8384 113.519 76.8384H108.942C107.856 76.8384 106.97 77.716 106.966 78.8019C106.958 81.4667 107.002 85.8907 107.07 85.8907C107.487 85.8907 112.497 85.8907 115.403 85.8907V85.8947Z" fill="#FFE784"/>
<path d="M117.294 72.4304H105.52C104.429 72.4304 103.544 73.316 103.544 74.406L103.524 150.174C103.524 151.288 104.425 152.19 105.54 152.19H117.246C118.336 152.19 119.222 151.308 119.222 150.218L119.27 74.41C119.27 73.32 118.388 72.4344 117.294 72.4344V72.4304ZM106.966 78.8059C106.966 77.7199 107.852 76.8424 108.942 76.8424H113.519C114.605 76.8424 115.487 77.7159 115.495 78.8019C115.515 81.4667 115.479 85.8987 115.403 85.8987C112.501 85.8987 107.487 85.8987 107.071 85.8987C107.002 85.8987 106.958 81.4747 106.966 78.8099V78.8059ZM115.743 146.211C115.731 147.289 114.85 148.155 113.767 148.155H108.79C107.708 148.155 106.826 147.285 106.814 146.199C106.814 145.919 106.81 145.602 106.81 145.249C106.81 127.469 106.81 109.689 106.81 91.9095C106.81 91.8814 106.81 91.8574 106.81 91.8293C106.81 90.7434 107.696 89.8618 108.786 89.8618H113.771C114.858 89.8618 115.743 90.7394 115.747 91.8293C115.747 91.8854 115.747 91.9415 115.747 91.9976C115.747 109.71 115.747 127.425 115.747 145.137C115.747 145.542 115.747 145.899 115.743 146.215V146.211Z" fill="black"/>
<path d="M98.3738 91.8252C98.3738 90.7392 97.484 89.8577 96.3979 89.8577H91.4123C90.3262 89.8577 89.4405 90.7392 89.4365 91.8252C89.4365 91.8533 89.4365 91.8813 89.4365 91.9054C89.4365 109.685 89.4365 127.465 89.4365 145.245C89.4365 145.598 89.4365 145.915 89.4405 146.195C89.4526 147.277 90.3302 148.151 91.4163 148.151H96.3939C97.472 148.151 98.3537 147.285 98.3697 146.207C98.3697 145.895 98.3738 145.538 98.3738 145.129C98.3738 127.417 98.3738 109.701 98.3738 91.9895C98.3738 91.9334 98.3738 91.8773 98.3738 91.8212V91.8252Z" fill="#A685BD"/>
<path d="M98.029 85.8947C98.1051 85.8947 98.1412 81.4627 98.1212 78.7979C98.1132 77.712 97.2315 76.8384 96.1454 76.8384H91.5685C90.4824 76.8384 89.5967 77.716 89.5927 78.8019C89.5847 81.4667 89.6288 85.8907 89.6969 85.8907C90.1137 85.8907 95.1234 85.8907 98.029 85.8907V85.8947Z" fill="#FFE784"/>
<path d="M99.9165 72.4304H88.1418C87.0517 72.4304 86.166 73.316 86.166 74.406L86.146 150.174C86.146 151.288 87.0477 152.19 88.1619 152.19H99.8685C100.959 152.19 101.844 151.308 101.844 150.218L101.892 74.41C101.892 73.32 101.011 72.4344 99.9165 72.4344V72.4304ZM89.5886 78.8059C89.5886 77.7199 90.4743 76.8424 91.5644 76.8424H96.1413C97.2274 76.8424 98.1091 77.7159 98.1171 78.8019C98.1371 81.4667 98.101 85.8987 98.0249 85.8987C95.1233 85.8987 90.1096 85.8987 89.6928 85.8987C89.6247 85.8987 89.5806 81.4747 89.5886 78.8099V78.8059ZM98.3656 146.211C98.3535 147.289 97.4718 148.155 96.3897 148.155H91.4121C90.3301 148.155 89.4484 147.285 89.4363 146.199C89.4363 145.919 89.4323 145.602 89.4323 145.249C89.4323 127.469 89.4323 109.689 89.4323 91.9095C89.4323 91.8814 89.4323 91.8574 89.4323 91.8293C89.4323 90.7434 90.318 89.8618 91.4081 89.8618H96.3938C97.4798 89.8618 98.3656 90.7394 98.3696 91.8293C98.3696 91.8854 98.3696 91.9415 98.3696 91.9976C98.3696 109.71 98.3696 127.425 98.3696 145.137C98.3696 145.542 98.3696 145.899 98.3656 146.215V146.211Z" fill="black"/>
<path d="M45.624 91.8252C45.624 90.7392 44.7343 89.8577 43.6482 89.8577H38.6626C37.5765 89.8577 36.6908 90.7392 36.6868 91.8252C36.6868 91.8533 36.6868 91.8813 36.6868 91.9054C36.6868 109.685 36.6868 127.465 36.6868 145.245C36.6868 145.598 36.6868 145.915 36.6908 146.195C36.7028 147.277 37.5805 148.151 38.6666 148.151H43.6442C44.7223 148.151 45.604 147.285 45.62 146.207C45.62 145.895 45.624 145.538 45.624 145.129C45.624 127.417 45.624 109.701 45.624 91.9895C45.624 91.9334 45.624 91.8773 45.624 91.8212V91.8252Z" fill="#C4D3ED"/>
<path d="M45.2753 85.8947C45.3515 85.8947 45.3876 81.4627 45.3675 78.7979C45.3595 77.712 44.4778 76.8384 43.3917 76.8384H38.8149C37.7288 76.8384 36.8431 77.716 36.8391 78.8019C36.8311 81.4667 36.8751 85.8907 36.9433 85.8907C37.3601 85.8907 42.3697 85.8907 45.2753 85.8907V85.8947Z" fill="#FFE784"/>
<path d="M47.1669 72.4304H35.3922C34.3021 72.4304 33.4164 73.316 33.4164 74.406L33.3964 150.174C33.3964 151.288 34.2981 152.19 35.4122 152.19H47.1188C48.2089 152.19 49.0946 151.308 49.0946 150.218L49.1427 74.41C49.1427 73.32 48.261 72.4344 47.1669 72.4344V72.4304ZM36.839 78.8059C36.839 77.7199 37.7247 76.8424 38.8148 76.8424H43.3916C44.4777 76.8424 45.3594 77.7159 45.3674 78.8019C45.3875 81.4667 45.3514 85.8987 45.2753 85.8987C42.3737 85.8987 37.36 85.8987 36.9432 85.8987C36.8751 85.8987 36.831 81.4747 36.839 78.8099V78.8059ZM45.6159 146.211C45.6039 147.289 44.7222 148.155 43.6401 148.155H38.6625C37.5804 148.155 36.6987 147.285 36.6867 146.199C36.6867 145.919 36.6827 145.602 36.6827 145.249C36.6827 127.469 36.6827 109.689 36.6827 91.9095C36.6827 91.8814 36.6827 91.8574 36.6827 91.8293C36.6827 90.7434 37.5684 89.8618 38.6585 89.8618H43.6441C44.7302 89.8618 45.6159 90.7394 45.6199 91.8293C45.6199 91.8854 45.6199 91.9415 45.6199 91.9976C45.6199 109.71 45.6199 127.425 45.6199 145.137C45.6199 145.542 45.6199 145.899 45.6159 146.215V146.211Z" fill="black"/>
<path d="M12.2236 91.8252C12.2236 90.7392 11.3339 89.8577 10.2478 89.8577H5.26219C4.17609 89.8577 3.29038 90.7392 3.28638 91.8252C3.28638 91.8533 3.28638 91.8813 3.28638 91.9054C3.28638 109.685 3.28638 127.465 3.28638 145.245C3.28638 145.598 3.28638 145.915 3.29038 146.195C3.30241 147.277 4.1801 148.151 5.26619 148.151H10.2438C11.3219 148.151 12.2036 147.285 12.2196 146.207C12.2196 145.895 12.2236 145.538 12.2236 145.129C12.2236 127.417 12.2236 109.701 12.2236 91.9895C12.2236 91.9334 12.2236 91.8773 12.2236 91.8212V91.8252Z" fill="#C4D3ED"/>
<path d="M11.8789 85.8947C11.955 85.8947 11.9911 81.4627 11.971 78.7979C11.963 77.712 11.0813 76.8384 9.99522 76.8384H5.4184C4.3323 76.8384 3.4466 77.716 3.44259 78.8019C3.43457 81.4667 3.47866 85.8907 3.54679 85.8907C3.96359 85.8907 8.97325 85.8907 11.8789 85.8907V85.8947Z" fill="#FFE784"/>
<path d="M13.7705 72.4304H1.99585C0.905746 72.4304 0.0200386 73.316 0.0200386 74.406L0 150.17C0 151.284 0.901738 152.186 2.01589 152.186H13.7225C14.8126 152.186 15.6983 151.304 15.6983 150.214L15.7464 74.406C15.7464 73.316 14.8647 72.4304 13.7705 72.4304ZM3.44264 78.8059C3.44264 77.7199 4.32834 76.8424 5.41845 76.8424H9.99527C11.0814 76.8424 11.9631 77.7159 11.9711 78.8019C11.9911 81.4667 11.955 85.8987 11.8789 85.8987C8.9773 85.8987 3.96364 85.8987 3.54684 85.8987C3.47871 85.8987 3.43462 81.4747 3.44264 78.8099V78.8059ZM12.2196 146.211C12.2075 147.289 11.3258 148.155 10.2437 148.155H5.26615C4.18407 148.155 3.30237 147.285 3.29034 146.199C3.29034 145.919 3.28633 145.602 3.28633 145.249C3.28633 127.469 3.28633 109.689 3.28633 91.9095C3.28633 91.8814 3.28633 91.8574 3.28633 91.8293C3.28633 90.7434 4.17204 89.8618 5.26214 89.8618H10.2478C11.3338 89.8618 12.2196 90.7394 12.2236 91.8293C12.2236 91.8854 12.2236 91.9415 12.2236 91.9976C12.2236 109.71 12.2236 127.425 12.2236 145.137C12.2236 145.542 12.2236 145.899 12.2196 146.215V146.211Z" fill="black"/>
<path d="M28.8155 91.8252C28.8155 90.7392 27.9258 89.8577 26.8397 89.8577H21.8541C20.768 89.8577 19.8823 90.7392 19.8783 91.8252C19.8783 91.8533 19.8783 91.8813 19.8783 91.9054C19.8783 109.685 19.8783 127.465 19.8783 145.245C19.8783 145.598 19.8783 145.915 19.8823 146.195C19.8943 147.277 20.772 148.151 21.8581 148.151H26.8357C27.9138 148.151 28.7955 147.285 28.8115 146.207C28.8115 145.895 28.8155 145.538 28.8155 145.129C28.8155 127.417 28.8155 109.701 28.8155 91.9895C28.8155 91.9334 28.8155 91.8773 28.8155 91.8212V91.8252Z" fill="#A685BD"/>
<path d="M28.4709 85.8947C28.547 85.8947 28.5831 81.4627 28.5631 78.7979C28.5551 77.712 27.6734 76.8384 26.5873 76.8384H22.0104C20.9243 76.8384 20.0386 77.716 20.0346 78.8019C20.0266 81.4667 20.0707 85.8907 20.1388 85.8907C20.5556 85.8907 25.5653 85.8907 28.4709 85.8907V85.8947Z" fill="#FFE784"/>
<path d="M30.3626 72.4304H18.5879C17.4978 72.4304 16.6121 73.316 16.6121 74.406L16.592 150.174C16.592 151.288 17.4938 152.19 18.6079 152.19H30.3145C31.4046 152.19 32.2903 151.308 32.2903 150.218L32.3384 74.41C32.3384 73.32 31.4567 72.4344 30.3626 72.4344V72.4304ZM20.0347 78.8059C20.0347 77.7199 20.9204 76.8424 22.0105 76.8424H26.5873C27.6734 76.8424 28.5551 77.7159 28.5631 78.8019C28.5832 81.4667 28.5471 85.8987 28.4709 85.8987C25.5693 85.8987 20.5557 85.8987 20.1389 85.8987C20.0707 85.8987 20.0267 81.4747 20.0347 78.8099V78.8059ZM28.8116 146.211C28.7996 147.289 27.9179 148.155 26.8358 148.155H21.8582C20.7761 148.155 19.8944 147.285 19.8824 146.199C19.8824 145.919 19.8784 145.602 19.8784 145.249C19.8784 127.469 19.8784 109.689 19.8784 91.9095C19.8784 91.8814 19.8784 91.8574 19.8784 91.8293C19.8784 90.7434 20.7641 89.8618 21.8542 89.8618H26.8398C27.9259 89.8618 28.8116 90.7394 28.8156 91.8293C28.8156 91.8854 28.8156 91.9415 28.8156 91.9976C28.8156 109.71 28.8156 127.425 28.8156 145.137C28.8156 145.542 28.8156 145.899 28.8116 146.215V146.211Z" fill="black"/>
<path d="M77.269 94.2576C77.6097 93.2237 77.0486 92.1097 76.0186 91.7691L71.2895 90.1903C70.2555 89.8457 69.1373 90.3987 68.7927 91.4325C68.7846 91.4566 68.7766 91.4846 68.7686 91.5087C63.1378 108.375 57.5069 125.241 51.876 142.104C51.7638 142.44 51.6636 142.741 51.5795 143.005C51.2468 144.035 51.8039 145.141 52.8339 145.486L57.555 147.061C58.581 147.401 59.6911 146.86 60.0438 145.842C60.148 145.546 60.2602 145.209 60.3884 144.821C65.9993 128.018 71.6061 111.216 77.2169 94.4139C77.2329 94.3618 77.253 94.3097 77.269 94.2576Z" fill="#FCD151"/>
<path d="M78.8158 88.5233C78.888 88.5474 80.3227 84.3518 81.1483 81.8192C81.485 80.7894 80.9239 79.6794 79.8939 79.3348L75.5535 77.8842C74.5236 77.5395 73.4054 78.0925 73.0567 79.1224C72.2031 81.6469 70.8485 85.8585 70.9126 85.8786C71.3054 86.0108 76.0625 87.5977 78.8158 88.5153V88.5233Z" fill="#FFE784"/>
<path d="M84.8757 76.3455L73.7061 72.6188C72.6721 72.2742 71.554 72.8312 71.2093 73.8651L47.195 145.726C46.8424 146.784 47.4115 147.926 48.4695 148.279L59.5749 151.986C60.6089 152.33 61.7271 151.773 62.0717 150.739L86.1221 78.846C86.4667 77.8122 85.9097 76.6902 84.8757 76.3455ZM73.0609 79.1225C73.4096 78.0927 74.5237 77.5397 75.5577 77.8843L79.8981 79.3349C80.9281 79.6795 81.4891 80.7855 81.1525 81.8194C80.3269 84.3519 78.8881 88.5475 78.82 88.5235C76.0667 87.6058 71.3135 86.0149 70.9168 85.8867C70.8526 85.8667 72.2113 81.6551 73.0609 79.1305V79.1225ZM60.0398 145.839C59.6871 146.86 58.577 147.401 57.551 147.057L52.8299 145.482C51.8039 145.137 51.2428 144.035 51.5755 143.002C51.6596 142.733 51.7598 142.432 51.872 142.1C57.5029 125.234 63.1338 108.367 68.7646 91.5048C68.7726 91.4808 68.7806 91.4527 68.7887 91.4287C69.1333 90.3988 70.2515 89.8418 71.2855 90.1864L76.0146 91.7653C77.0446 92.1099 77.6057 93.2239 77.265 94.2538C77.249 94.3059 77.2289 94.358 77.2129 94.41C71.6061 111.212 65.9953 128.015 60.3845 144.817C60.2562 145.201 60.14 145.542 60.0398 145.839Z" fill="black"/>
<path d="M191.77 30.1302L189.044 30.1102V0H66.7246V73.8048H73.0248V5.9427H182.127V30.0541L179.189 30.0301C178.187 30.022 177.67 31.2282 178.364 31.9495L184.888 39.4951C185.349 39.972 186.115 39.9559 186.552 39.459L192.603 32.0096C193.244 31.2803 192.736 30.1342 191.762 30.1262L191.77 30.1302Z" fill="black"/>
<path d="M187.012 106.444C196.785 106.444 204.707 98.5226 204.707 88.7517C204.707 78.9807 196.785 71.0598 187.012 71.0598C177.24 71.0598 169.318 78.9807 169.318 88.7517C169.318 98.5226 177.24 106.444 187.012 106.444Z" fill="white"/>
<path d="M186.62 109.429C175.085 109.429 165.703 100.048 165.703 88.5152C165.703 76.9824 175.085 67.6016 186.62 67.6016C198.154 67.6016 207.536 76.9824 207.536 88.5152C207.536 100.048 198.154 109.429 186.62 109.429ZM186.62 71.5767C177.278 71.5767 169.675 79.1744 169.675 88.5192C169.675 97.864 177.274 105.462 186.62 105.462C195.966 105.462 203.564 97.864 203.564 88.5192C203.564 79.1744 195.966 71.5767 186.62 71.5767Z" fill="black"/>
<path d="M185.606 98.994L173.895 88.0664L176.604 85.1611L185.353 93.3278L197.469 79.8315L200.426 82.4843L185.606 98.994Z" fill="black"/>
</g>
<defs>
<clipPath id="clip0_61_113">
<rect width="249" height="160" fill="white"/>
</clipPath>
</defs>
</svg>
