<svg width="11" height="20" viewBox="0 0 11 20" fill="none" xmlns="http://www.w3.org/2000/svg">
<path d="M0 7.25671H3.22015C3.22015 6.40259 3.19492 5.58501 3.22857 4.76925C3.25287 4.19557 3.29213 3.6091 3.43795 3.05643C3.99224 0.970911 5.60559 -0.127117 7.80221 0.0117351C8.73134 0.0701992 9.66233 0.0939502 10.6251 0.134144V3.07653C10.1138 3.07653 9.61746 3.0409 9.1286 3.08749C8.71825 3.12586 8.29575 3.20716 7.91905 3.3652C7.47038 3.55247 7.15444 3.93431 7.13668 4.42486C7.1021 5.3475 7.1264 6.27196 7.1264 7.25945H10.5316C10.3372 8.46619 10.154 9.60258 9.96332 10.792H7.11799V19.4794H3.24072V10.8267H0V7.25763V7.25671Z" fill="black"/>
</svg>
