<svg width="19" height="19" viewBox="0 0 19 19" fill="none" xmlns="http://www.w3.org/2000/svg">
<path d="M9.48522 18.2221C8.18473 18.2221 6.88423 18.2267 5.58281 18.2212C2.68332 18.2093 0.625117 16.1439 0.626954 13.2546C0.627873 10.6365 0.627873 8.0184 0.626954 5.40124C0.626036 2.67903 2.73659 0.573423 5.48362 0.568855C8.17646 0.564288 10.8702 0.564288 13.5631 0.568855C16.2513 0.573423 18.3931 2.65528 18.416 5.32451C18.439 7.98826 18.4363 10.652 18.4142 13.3148C18.3903 16.185 16.3156 18.2121 13.4326 18.2212C12.1165 18.2258 10.8004 18.2212 9.48431 18.2212L9.48522 18.2221ZM9.49716 16.6665C10.828 16.6665 12.1588 16.6728 13.4896 16.6646C15.4348 16.6537 16.8428 15.2414 16.8428 13.3121C16.8428 10.7105 16.8437 8.10884 16.8419 5.50721C16.84 3.52036 15.4348 2.11814 13.4345 2.1154C10.8344 2.11175 8.2334 2.11266 5.63332 2.11723C3.59992 2.11997 2.19013 3.50574 2.1837 5.51817C2.17543 8.10427 2.17543 10.6913 2.1837 13.2774C2.19013 15.2706 3.59073 16.6555 5.59659 16.6646C6.89709 16.671 8.19667 16.6655 9.49716 16.6655V16.6665Z" fill="black"/>
<path d="M9.52286 14.2102C6.84563 14.2166 4.69007 12.0672 4.68823 9.38879C4.6864 6.75884 6.85665 4.58289 9.49255 4.57376C12.1459 4.56462 14.3896 6.75153 14.4034 9.36047C14.4172 12.0178 12.2175 14.2038 9.52377 14.2102H9.52286ZM12.6914 9.38331C12.6868 7.65315 11.2348 6.23175 9.48796 6.24728C7.76222 6.26281 6.33314 7.68969 6.33774 9.39336C6.34233 11.1674 7.77141 12.5842 9.5449 12.5732C11.2945 12.5623 12.697 11.1418 12.6924 9.38422L12.6914 9.38331Z" fill="black"/>
<path d="M14.2886 5.69266C13.71 5.69814 13.2333 5.22586 13.2434 4.65584C13.2526 4.10226 13.71 3.65465 14.2739 3.64826C14.836 3.64186 15.3338 4.13332 15.3246 4.68598C15.3163 5.22677 14.8424 5.68717 14.2886 5.69266Z" fill="black"/>
</svg>
