<svg width="48" height="49" viewBox="0 0 48 49" fill="none" xmlns="http://www.w3.org/2000/svg">
<g clip-path="url(#clip0_54_8)">
<path d="M42.7357 0.5H5.26433C2.35692 0.5 0 2.89846 0 5.8571V43.1429C0 46.1015 2.35692 48.5 5.26433 48.5H42.7357C45.6431 48.5 48 46.1015 48 43.1429V5.8571C48 2.89846 45.6431 0.5 42.7357 0.5Z" fill="#062943"/>
<path d="M17.6252 6H9.37478C6.95866 6 5 8.0063 5 10.4812V17.5188C5 19.9937 6.95866 22 9.37478 22H17.6252C20.0413 22 22 19.9937 22 17.5188V10.4812C22 8.0063 20.0413 6 17.6252 6Z" fill="white"/>
<path d="M16.1693 27.5H10.8307C9.26737 27.5 8 28.8793 8 30.5808V35.4192C8 37.1207 9.26737 38.5 10.8307 38.5H16.1693C17.7326 38.5 19 37.1207 19 35.4192V30.5808C19 28.8793 17.7326 27.5 16.1693 27.5Z" fill="white"/>
<path d="M40.0217 6H25.9783C25.438 6 25 6.96116 25 8.14681V8.85319C25 10.0388 25.438 11 25.9783 11H40.0217C40.562 11 41 10.0388 41 8.85319V8.14681C41 6.96116 40.562 6 40.0217 6Z" fill="white"/>
<path d="M40.0217 17H25.9783C25.438 17 25 17.9612 25 19.1468V19.8532C25 21.0388 25.438 22 25.9783 22H40.0217C40.562 22 41 21.0388 41 19.8532V19.1468C41 17.9612 40.562 17 40.0217 17Z" fill="white"/>
<path d="M40.3652 21.5H7.63479C6.17964 21.5 5 22.8608 5 24.5394V40.4606C5 42.1392 6.17964 43.5 7.63479 43.5H40.3652C41.8204 43.5 43 42.1392 43 40.4606V24.5394C43 22.8608 41.8204 21.5 40.3652 21.5Z" fill="#062943"/>
<path d="M39.7377 26H7.26233C6.01288 26 5 27.1534 5 28.5762V29.4238C5 30.8466 6.01288 32 7.26233 32H39.7377C40.9871 32 42 30.8466 42 29.4238V28.5762C42 27.1534 40.9871 26 39.7377 26Z" fill="white"/>
<path d="M39.7377 35H7.26233C6.01288 35 5 36.1534 5 37.5762V38.4238C5 39.8466 6.01288 41 7.26233 41H39.7377C40.9871 41 42 39.8466 42 38.4238V37.5762C42 36.1534 40.9871 35 39.7377 35Z" fill="white"/>
</g>
<defs>
<clipPath id="clip0_54_8">
<rect width="48" height="48" fill="white" transform="translate(0 0.5)"/>
</clipPath>
</defs>
</svg>
