<svg width="226" height="144" viewBox="0 0 226 144" fill="none" xmlns="http://www.w3.org/2000/svg">
<g clip-path="url(#clip0_54_81)">
<path d="M179.753 135.295C179.738 138.807 180.255 139.339 183.688 139.344C195 139.359 206.311 139.359 217.628 139.344C220.775 139.344 221.371 138.733 221.366 135.591C221.331 123.236 221.287 110.886 221.248 98.5317H179.955C179.896 110.788 179.817 123.044 179.758 135.295H179.753Z" fill="white"/>
<path d="M80.4582 54.7256C80.4484 66.0397 80.4582 77.3586 80.3449 88.6727C80.3252 90.7441 80.7734 91.5135 83.0289 91.5086C113.852 91.4346 144.675 91.4642 175.498 91.4543C176.567 91.4543 177.374 91.4543 177.995 91.5234V82.4041C177.941 82.4041 177.892 82.414 177.832 82.414C175.853 82.4485 175.065 81.0675 175.104 79.0996C175.173 75.9037 175.114 72.7028 175.124 69.5069C175.139 64.0866 178 61.1767 183.456 61.0879C186.308 61.0435 189.159 61.0781 192.252 61.0781V23.58H47.8622C47.8622 26.8548 47.8869 30.1001 47.8475 33.3453C47.8376 34.2282 47.8622 35.259 47.4338 35.9544C47.0448 36.5807 46.0303 37.2022 45.3458 37.143C45.1882 37.1282 45.0257 37.0789 44.8632 37V46.2574C53.89 46.2475 62.9118 46.2426 71.9386 46.2475C77.5281 46.2475 80.4631 49.2018 80.4582 54.7306V54.7256Z" fill="white"/>
<path d="M192.237 11.7579C192.237 6.26862 190.715 4.74462 185.229 4.74462C141.779 4.74462 98.3345 4.74462 54.8847 4.74462C54.2297 4.74462 53.5698 4.71996 52.9198 4.76435C49.9059 4.98629 48.138 6.78648 48.005 9.83446C47.9311 11.4719 47.9755 13.1143 47.9755 14.7517C47.9755 17.3525 49.2394 18.6529 51.7674 18.6529C74.5585 18.6529 97.3446 18.6529 120.136 18.6529C142.927 18.6529 165.55 18.6529 188.258 18.6529C188.996 18.6529 189.834 18.865 190.444 18.5839C191.144 18.2583 192.055 17.5531 192.143 16.9119C192.385 15.2252 192.237 13.4792 192.232 11.7579H192.237Z" fill="#052943"/>
<path d="M70.1215 51.0611C74.2385 51.0611 74.79 51.6233 74.795 55.7317C74.795 57.1225 74.6817 58.5282 74.8196 59.9042C75.0166 61.8326 74.1991 62.3505 72.4853 62.3801C72.702 62.3801 72.9187 62.3801 73.1354 62.3801C74.9969 62.3899 75.8882 61.9115 75.6814 59.8993C75.5435 58.5232 75.6568 57.1176 75.6568 55.7268C75.6518 51.6135 75.1003 51.0562 70.9833 51.0562C62.2766 51.0562 53.565 51.0562 44.8583 51.0562C53.2794 51.0562 61.7004 51.0562 70.1215 51.0562V51.0611Z" fill="white"/>
<path d="M44.8583 62.3506C48.6059 62.3506 52.3535 62.3457 56.0962 62.3457C52.3486 62.3457 48.601 62.3457 44.8583 62.3506Z" fill="white"/>
<path d="M179.965 95.9474C179.965 96.8055 179.955 97.6686 179.95 98.5268H221.243C221.213 88.9883 221.179 79.4547 221.159 69.9162C221.159 67.9138 220.795 66.3651 218.416 66.0248C214.856 65.5218 214.122 65.8571 213.181 68.7522C211.423 74.1627 210.65 74.72 204.923 74.7249C201.805 74.7249 198.693 74.7249 195.576 74.7249C190.725 74.7249 189.563 73.8865 188.085 69.3391C186.938 65.8177 186.628 65.65 183.057 65.9952C180.984 66.1975 179.95 67.1987 179.97 69.3243C179.999 72.6041 179.97 75.8839 179.97 79.1637C179.97 80.6828 179.778 82.2906 178 82.4139V91.5332C179.93 91.7453 179.984 92.5837 179.97 95.9523L179.965 95.9474Z" fill="#C4D3ED"/>
<path d="M217.515 61.0682C211.61 61.0435 205.711 61.0682 199.806 61.0534C198.939 61.0534 198.068 60.9646 196.984 60.9054C196.984 59.6971 196.984 58.7304 196.984 57.7588C196.984 42.0158 196.984 26.2679 196.969 10.5249C196.96 4.10344 192.936 0 186.588 0C142.237 0 97.8864 0 53.5354 0.00986403C47.2811 0.00986403 43.2824 4.05905 43.2676 10.3474C43.2479 18.1399 43.2627 25.9276 43.2676 33.7202C43.2676 34.3761 43.0903 35.185 43.4005 35.6437C43.7502 36.1615 44.3017 36.7386 44.8582 37C45.0207 37.0739 45.1833 37.1282 45.3408 37.143C46.0254 37.1972 47.0398 36.5758 47.4289 35.9544C47.8573 35.2639 47.8327 34.2331 47.8425 33.3453C47.8819 30.1001 47.8573 26.8548 47.8573 23.58H192.257V61.083C189.164 61.083 186.313 61.0435 183.461 61.0929C178.005 61.1816 175.144 64.0915 175.129 69.5118C175.119 72.7077 175.178 75.9086 175.109 79.1046C175.065 81.0724 175.858 82.4485 177.837 82.4189C177.896 82.4189 177.946 82.409 178 82.409C179.778 82.2857 179.97 80.6779 179.97 79.1588C179.97 75.879 180.004 72.5992 179.97 69.3195C179.95 67.1987 180.979 66.1926 183.057 65.9903C186.628 65.6451 186.938 65.8177 188.085 69.3342C189.568 73.8816 190.725 74.7151 195.576 74.72C198.693 74.72 201.805 74.72 204.923 74.72C210.65 74.72 211.423 74.1627 213.181 68.7473C214.122 65.8522 214.856 65.5218 218.416 66.0199C220.795 66.3553 221.154 67.9089 221.159 69.9113C221.184 79.4498 221.213 88.9834 221.243 98.5219C221.282 110.877 221.327 123.226 221.361 135.581C221.371 138.723 220.77 139.329 217.623 139.334C206.311 139.349 195 139.349 183.683 139.334C180.255 139.334 179.733 138.797 179.748 135.285C179.807 123.029 179.886 110.773 179.945 98.5219C179.945 97.6637 179.955 96.8006 179.96 95.9425C179.975 92.5739 179.92 91.7305 177.99 91.5234C177.37 91.4543 176.562 91.4543 175.493 91.4543C144.67 91.4642 113.847 91.4346 83.0239 91.5086C80.7684 91.5135 80.3154 90.749 80.34 88.6727C80.4533 77.3586 80.4434 66.0397 80.4533 54.7256C80.4582 49.1968 77.5281 46.2426 71.9337 46.2426C62.9069 46.2426 53.885 46.2426 44.8582 46.2524C32.7338 46.2623 20.6095 46.2771 8.48509 46.2968C2.91044 46.3116 0 49.261 0 54.8193C0 81.7974 0 108.776 0.0147738 135.754C0.0147738 141.056 2.88582 143.906 8.22409 143.911C29.5378 143.921 50.8515 143.926 72.1652 143.921C77.5281 143.921 80.3745 141.095 80.3893 135.783C80.404 129.88 80.4828 123.971 80.3548 118.072C80.3105 115.976 81.0344 115.414 83.0288 115.453C88.4361 115.562 93.8482 115.483 99.2603 115.498C100.053 115.498 100.846 115.606 101.604 115.661C101.708 116.124 101.856 116.381 101.801 116.588C100.029 123.808 98.2656 131.029 96.3844 138.22C96.2563 138.718 95.2468 139.201 94.5869 139.295C93.0603 139.517 91.4253 139.26 89.9775 139.68C89.224 139.897 88.2489 141.194 88.3228 141.904C88.3967 142.629 89.5539 143.374 90.3862 143.852C90.8836 144.138 91.6666 143.921 92.3265 143.921C110.937 143.921 129.542 143.921 148.152 143.921C148.644 143.921 149.27 144.104 149.6 143.872C150.432 143.28 151.702 142.52 151.722 141.795C151.747 141.031 150.658 139.966 149.802 139.527C149.009 139.122 147.866 139.246 146.901 139.364C144.749 139.625 143.542 138.979 143.276 136.627C143.084 134.94 142.429 133.307 142.011 131.64C140.711 126.432 139.425 121.219 138.101 115.883C138.834 115.72 139.292 115.527 139.755 115.527C150.905 115.508 162.054 115.537 173.203 115.488C174.966 115.478 175.158 116.381 175.149 117.801C175.104 123.868 175.119 129.939 175.149 136.005C175.168 141.016 178.069 143.906 183.097 143.911C194.655 143.926 206.213 143.921 217.771 143.911C223.119 143.911 225.99 141.065 225.995 135.768C226.005 113.708 226.01 91.6516 226.01 69.5956C226.01 64.0225 223.099 61.0928 217.525 61.0682H217.515ZM192.148 16.9119C192.055 17.553 191.149 18.2583 190.449 18.5838C189.839 18.865 189.001 18.6529 188.263 18.6529C165.555 18.6529 142.848 18.6529 120.141 18.6529C97.4333 18.6529 74.5634 18.6529 51.7724 18.6529C49.2444 18.6529 47.9804 17.3525 47.9804 14.7517C47.9804 13.1142 47.9361 11.4669 48.01 9.83444C48.1429 6.78645 49.9109 4.98627 52.9247 4.76433C53.5797 4.715 54.2347 4.7446 54.8896 4.7446C98.3394 4.7446 141.784 4.7446 185.234 4.7446C190.72 4.7446 192.237 6.26859 192.242 11.7579C192.242 13.4792 192.394 15.2251 192.153 16.9119H192.148ZM204.75 69.8422C201.973 69.8422 199.195 69.8422 196.418 69.8422C193.035 69.8422 192.926 69.7337 192.527 65.867H208.542C208.306 69.5907 208.065 69.8422 204.755 69.8422H204.75ZM3.83627 59.4801C3.98401 58.104 3.85597 56.6984 3.86581 55.3076C3.88551 51.7565 4.57988 51.071 8.23394 51.0611C10.7159 51.0562 13.2029 51.0562 15.6849 51.0562C18.0733 51.0562 20.4617 51.0562 22.8551 51.0562C30.1928 51.0562 37.5255 51.0562 44.8632 51.0562C53.5699 51.0562 62.2815 51.0562 70.9882 51.0562C75.1051 51.0562 75.6567 51.6185 75.6616 55.7268C75.6616 57.1176 75.5484 58.5233 75.6863 59.8993C75.8882 61.9066 75.0017 62.39 73.1402 62.3801C72.9236 62.3801 72.7069 62.3801 72.4902 62.3801C72.4212 62.3801 72.3474 62.3801 72.2735 62.3801C66.8811 62.3505 61.4935 62.3407 56.1011 62.3407C52.3535 62.3407 48.6059 62.3407 44.8632 62.3456C43.4596 62.3456 42.0611 62.3456 40.6575 62.3456C40.2242 62.3456 39.7957 62.3456 39.3624 62.3456C34.0832 62.3456 28.7991 62.3308 23.5199 62.3308C18.2013 62.3308 12.8828 62.3407 7.56419 62.3949C7.45093 62.3949 7.34751 62.3949 7.24409 62.3949C7.06188 62.3949 6.87967 62.3949 6.69746 62.3949C4.4223 62.4196 3.59496 61.7143 3.83627 59.4751V59.4801ZM71.6087 139.344C50.6348 139.349 29.656 139.349 8.68208 139.344C5.15606 139.344 4.63405 138.826 4.63405 135.408C4.63405 113.525 4.63405 91.6417 4.63405 69.7584C4.63405 68.9643 4.71285 68.1654 4.76702 67.2381H75.6419C75.6813 68.1308 75.7601 68.9989 75.7601 69.862C75.7651 91.6615 75.7651 113.466 75.7601 135.265C75.7601 138.861 75.2726 139.344 71.6087 139.344ZM139.155 139.107H101.082C102.486 133.441 103.825 127.986 105.194 122.536C106.311 118.1 109.159 115.883 113.739 115.883C119.471 115.883 125.208 115.828 130.94 115.947C131.792 115.962 133.215 116.608 133.388 117.234C135.392 124.385 137.204 131.596 139.15 139.107H139.155ZM175.03 109.787C175.02 110.201 174.331 110.803 173.848 110.956C173.174 111.168 172.391 111.049 171.652 111.049C142.41 111.049 113.172 111.049 83.93 111.049C81.5859 111.049 80.4122 109.913 80.409 107.641C80.409 103.883 80.409 100.125 80.409 96.1595H175.08C175.08 100.81 175.109 105.298 175.025 109.787H175.03Z" fill="black"/>
<path d="M75.7602 69.8619C75.7602 68.9938 75.6863 68.1307 75.642 67.238H4.76707C4.71782 68.1653 4.6341 68.9642 4.6341 69.7583C4.62918 91.6416 4.62426 113.525 4.6341 135.408C4.6341 138.826 5.15611 139.339 8.68213 139.344C29.656 139.354 50.6348 139.349 71.6087 139.344C75.2776 139.344 75.7602 138.861 75.7602 135.265C75.7602 113.466 75.7602 91.6614 75.7602 69.8619Z" fill="white"/>
<path d="M80.4089 96.1594C80.4089 100.13 80.4089 103.888 80.4089 107.641C80.4089 109.91 81.5826 111.046 83.93 111.049C113.172 111.049 142.41 111.049 171.652 111.049C172.391 111.049 173.174 111.168 173.848 110.955C174.336 110.803 175.025 110.201 175.03 109.787C175.114 105.298 175.084 100.81 175.084 96.1594H80.4139H80.4089Z" fill="#798A91"/>
<path d="M7.03228 62.3999C12.5675 62.3506 18.0979 62.3358 23.6331 62.3407C29.0206 62.3407 34.4082 62.3555 39.7957 62.3555C40.234 62.3555 40.6772 62.3555 41.1155 62.3555C42.5436 62.3555 43.9717 62.3555 45.4048 62.3555C49.2263 62.3555 53.0478 62.3506 56.8693 62.3506C62.3701 62.3506 67.8659 62.3604 73.3667 62.39C73.4406 62.39 73.5145 62.39 73.5883 62.39C75.3366 62.3604 76.1688 61.8426 75.9669 59.9141C75.8241 58.5381 75.9423 57.1325 75.9423 55.7417C75.9374 51.6284 75.376 51.071 71.1753 51.071C62.5868 51.071 53.9982 51.071 45.4097 51.071C37.6338 51.071 29.8529 51.071 22.0769 51.071C19.9347 51.071 17.7925 51.071 15.6503 51.071C13.1191 51.071 10.5829 51.071 8.05167 51.076C4.32374 51.0858 3.61953 51.7714 3.59983 55.3224C3.58998 56.7133 3.72294 58.1189 3.57028 59.4949C3.32405 61.7341 4.16616 62.4393 6.49057 62.4147C6.67771 62.4147 6.85992 62.4147 7.04705 62.4147L7.03228 62.3999Z" fill="#052943"/>
<path d="M130.945 115.947C125.213 115.833 119.476 115.887 113.744 115.882C109.17 115.882 106.322 118.1 105.199 122.536C103.83 127.981 102.491 133.44 101.087 139.107H139.16C137.214 131.596 135.402 124.39 133.398 117.234C133.22 116.608 131.802 115.961 130.95 115.947H130.945Z" fill="#798A91"/>
<path d="M192.523 65.8621C192.921 69.7337 193.03 69.8373 196.413 69.8373C199.19 69.8373 201.968 69.8373 204.745 69.8373C208.055 69.8373 208.296 69.5857 208.532 65.8621H192.518H192.523Z" fill="white"/>
<path d="M175.907 31.1901C175.907 28.6501 175.907 26.1151 175.912 23.5751C175.341 23.5406 174.774 23.4764 174.203 23.4764C138.13 23.4764 102.058 23.4764 65.9848 23.4764C65.4135 23.4764 64.8472 23.5406 64.2759 23.5751C64.2759 31.0421 64.2759 38.5142 64.271 45.9812C67.0386 46.0108 69.8112 46.0256 72.5788 46.0749C77.4099 46.1538 80.4779 49.2511 80.5074 54.0549C80.5173 55.357 80.5616 56.659 80.5911 57.9611C110.641 57.9463 140.691 57.9315 170.741 57.9167C171.48 57.9167 172.223 57.8427 172.952 57.9315C175.188 58.1978 175.986 57.315 175.951 55.0216C175.843 47.0811 175.907 39.1356 175.907 31.195V31.1901Z" fill="#C4D3ED"/>
<path d="M129.271 74.5574C113.044 74.5623 96.8178 74.5574 80.5912 74.5574C80.5912 76.2047 80.5912 77.852 80.5912 79.4993C89.6081 79.4993 98.6202 79.4894 107.637 79.4894C115.014 79.4894 122.386 79.5042 129.763 79.4795C132.112 79.4697 133.26 78.0295 132.551 76.0567C131.979 74.4637 130.61 74.5672 129.276 74.5672L129.271 74.5574Z" fill="#C4D3ED"/>
<path d="M129.271 64.7229C113.044 64.7278 96.8178 64.7229 80.5912 64.7229C80.5912 66.3702 80.5912 68.0175 80.5912 69.6648C89.6081 69.6648 98.6202 69.6549 107.637 69.6549C115.014 69.6549 122.386 69.6697 129.763 69.6451C132.112 69.6352 133.26 68.195 132.551 66.2222C131.979 64.6292 130.61 64.7328 129.276 64.7328L129.271 64.7229Z" fill="#C4D3ED"/>
<path d="M156.297 74.5573C155.071 74.5918 153.85 74.5622 152.623 74.5671C151.235 74.5671 149.846 74.5178 148.457 74.5868C147.034 74.6559 146.123 75.5782 146.01 76.8852C145.886 78.2809 146.906 79.3068 148.206 79.3808C151.052 79.5386 153.923 79.5189 156.77 79.361C158.1 79.2871 159.109 78.2711 158.961 76.8704C158.814 75.4697 157.912 74.5129 156.297 74.5573Z" fill="#C4D3ED"/>
<path d="M26.5486 74.7002H16.6354C15.4849 74.7002 14.5522 75.6342 14.5522 76.7864V130.664C14.5522 131.816 15.4849 132.75 16.6354 132.75H26.5486C27.6991 132.75 28.6317 131.816 28.6317 130.664V76.7864C28.6317 75.6342 27.6991 74.7002 26.5486 74.7002Z" fill="#C4D3ED"/>
<path d="M66.2163 74.7002H38.3972C37.2467 74.7002 36.3141 75.6342 36.3141 76.7864V94.2408C36.3141 95.393 37.2467 96.3271 38.3972 96.3271H66.2163C67.3668 96.3271 68.2994 95.393 68.2994 94.2408V76.7864C68.2994 75.6342 67.3668 74.7002 66.2163 74.7002Z" fill="#C4D3ED"/>
<path d="M66.3887 103.607H38.7124C37.5619 103.607 36.6293 104.541 36.6293 105.693V130.896C36.6293 132.048 37.5619 132.982 38.7124 132.982H66.3887C67.5391 132.982 68.4718 132.048 68.4718 130.896V105.693C68.4718 104.541 67.5391 103.607 66.3887 103.607Z" fill="#C4D3ED"/>
<path d="M191.326 93.8364H185.771C184.62 93.8364 183.688 94.7705 183.688 95.9227V121.125C183.688 122.277 184.62 123.212 185.771 123.212H191.326C192.476 123.212 193.409 122.277 193.409 121.125V95.9227C193.409 94.7705 192.476 93.8364 191.326 93.8364Z" fill="#052943"/>
<path d="M13.3604 59.1842C14.8427 59.1842 16.0443 57.9808 16.0443 56.4963C16.0443 55.0118 14.8427 53.8083 13.3604 53.8083C11.8781 53.8083 10.6765 55.0118 10.6765 56.4963C10.6765 57.9808 11.8781 59.1842 13.3604 59.1842Z" fill="#FFE784"/>
<path d="M22.9733 59.1842C24.4556 59.1842 25.6572 57.9808 25.6572 56.4963C25.6572 55.0118 24.4556 53.8083 22.9733 53.8083C21.4911 53.8083 20.2894 55.0118 20.2894 56.4963C20.2894 57.9808 21.4911 59.1842 22.9733 59.1842Z" fill="#FFE784"/>
<path d="M32.2119 59.1842C33.6941 59.1842 34.8958 57.9808 34.8958 56.4963C34.8958 55.0118 33.6941 53.8083 32.2119 53.8083C30.7296 53.8083 29.528 55.0118 29.528 56.4963C29.528 57.9808 30.7296 59.1842 32.2119 59.1842Z" fill="#FFE784"/>
<path d="M56.5541 14.4262C58.0364 14.4262 59.2381 13.2228 59.2381 11.7382C59.2381 10.2537 58.0364 9.05029 56.5541 9.05029C55.0719 9.05029 53.8702 10.2537 53.8702 11.7382C53.8702 13.2228 55.0719 14.4262 56.5541 14.4262Z" fill="#FFE784"/>
<path d="M66.1669 14.4262C67.6492 14.4262 68.8508 13.2228 68.8508 11.7382C68.8508 10.2537 67.6492 9.05029 66.1669 9.05029C64.6847 9.05029 63.483 10.2537 63.483 11.7382C63.483 13.2228 64.6847 14.4262 66.1669 14.4262Z" fill="#FFE784"/>
<path d="M75.4056 14.4262C76.8879 14.4262 78.0895 13.2228 78.0895 11.7382C78.0895 10.2537 76.8879 9.05029 75.4056 9.05029C73.9233 9.05029 72.7217 10.2537 72.7217 11.7382C72.7217 13.2228 73.9233 14.4262 75.4056 14.4262Z" fill="#FFE784"/>
</g>
<defs>
<clipPath id="clip0_54_81">
<rect width="226" height="144" fill="white"/>
</clipPath>
</defs>
</svg>
