<svg width="17" height="19" viewBox="0 0 17 19" fill="none" xmlns="http://www.w3.org/2000/svg">
<path d="M7.43551 7.08443V10.2053C6.97028 10.2053 6.51159 10.1337 6.08661 10.2189C4.71806 10.4935 3.83721 11.7295 4.01975 13.0326C4.20977 14.3882 5.41263 15.3207 6.86356 15.2355C8.20777 15.1567 9.28801 14.0666 9.30579 12.71C9.3292 10.9584 9.31141 9.20671 9.31141 7.45596C9.31141 5.35725 9.31141 3.25854 9.31141 1.15982C9.31141 0.995805 9.31141 0.831786 9.31141 0.591648C10.0453 0.591648 10.7408 0.58893 11.4363 0.592554C11.7471 0.594367 12.1449 0.50103 12.3424 0.65055C12.524 0.787383 12.4754 1.19607 12.5512 1.4788C13.0024 3.14889 13.9825 4.33689 15.7816 4.76461C15.9314 4.79995 16.0886 4.81354 16.244 4.8226C16.3985 4.83257 16.5529 4.82442 16.757 4.82442V7.82659C15.1844 7.95618 13.8037 7.48496 12.48 6.47548C12.48 6.72196 12.48 6.87873 12.48 7.03459C12.48 8.92216 12.5072 10.8097 12.4735 12.6964C12.4024 16.6745 8.34631 19.3088 4.52055 17.8816C2.13542 16.9917 0.597438 14.632 0.845499 12.2424C1.11696 9.6308 3.06495 7.56561 5.66725 7.17324C6.23826 7.08715 6.82799 7.11162 7.43363 7.08443H7.43551Z" fill="black"/>
</svg>
