<svg width="182" height="177" viewBox="0 0 182 177" fill="none" xmlns="http://www.w3.org/2000/svg">
<g clip-path="url(#clip0_61_154)">
<path d="M97.6472 133.552C97.7041 133.485 97.7609 133.418 97.8249 133.354C98.8949 132.261 100.491 132.236 101.774 133.457C104.294 135.862 106.811 138.281 109.203 140.814C111.407 143.145 113.928 144.599 117.198 144.861C121.389 145.2 124.851 147.117 127.702 150.163C127.94 150.418 128.221 150.637 128.417 150.81C137.492 141.801 146.538 132.82 155.67 123.754C155.326 123.372 154.938 122.947 154.554 122.523C151.92 119.619 150.42 116.244 150.353 112.304C150.31 109.771 150.321 107.235 150.331 104.702C150.342 101.667 149.318 99.0781 147.139 96.9239C143.403 93.224 139.713 89.4816 135.981 85.7781C132.419 82.2444 128.409 81.4768 124.339 83.8467C126.319 85.6896 128.207 87.4476 130.091 89.2056C130.436 89.5275 130.784 89.853 131.1 90.1996C132.312 91.5225 132.384 93.04 131.303 94.133C130.265 95.1836 128.577 95.1376 127.343 93.9385C125.352 92.0036 123.397 90.0334 121.453 88.049C120.891 87.4759 120.419 86.8145 119.903 86.1955C119.729 86.291 119.555 86.39 119.384 86.4855C119.384 87.7518 119.384 89.0182 119.384 90.2845C119.384 94.7061 119.27 99.1276 119.409 103.546C119.629 110.436 113.753 115.098 107.323 113.16C107.117 113.1 106.893 113.103 106.498 113.057C106.498 114.504 106.395 115.859 106.516 117.192C107.192 124.684 101.305 129.965 93.5238 127.479C93.4811 127.617 93.4349 127.747 93.3887 127.882C94.7075 129.849 96.1578 131.716 97.6543 133.552H97.6472Z" fill="#FFE784"/>
<path d="M9.88199 144.227C10.3441 144.829 10.7636 145.466 11.1866 146.099C11.6273 146.757 12.0717 147.407 12.6155 147.988C12.8182 148.203 13.0243 148.416 13.2305 148.631C13.3123 148.525 13.3976 148.419 13.4936 148.317C14.5493 147.199 15.8041 147.227 17.0198 148.062C17.5495 148.426 17.9654 148.95 18.4239 149.41C25.4586 156.413 32.4898 163.421 39.5245 170.421C39.9333 170.828 40.3634 171.206 40.7189 171.535C45.0201 167.248 49.2359 163.049 53.3416 158.957C41.6147 147.34 29.7563 135.593 17.9796 123.927C14.041 127.832 9.78602 132.056 5.28223 136.523C6.53348 137.701 7.91981 138.961 9.24926 140.276C10.5894 141.606 10.7955 143.124 9.87844 144.231L9.88199 144.227ZM41.5543 156.753C43.0188 156.721 44.3945 158.065 44.4193 159.554C44.4442 161.09 43.193 162.349 41.6289 162.363C40.04 162.381 38.7852 161.185 38.7567 159.629C38.7283 158.15 40.0542 156.785 41.5543 156.749V156.753Z" fill="#798A91"/>
<path d="M182 137.592C180.262 139.636 178.651 141.808 176.764 143.707C166.519 154.011 156.214 164.255 145.916 174.506C142.536 177.87 139.681 177.814 136.297 174.418C132.714 170.817 129.113 167.234 125.505 163.654C122.413 160.584 122.182 158.316 124.663 154.754C122.409 151.868 119.473 150.258 115.78 149.972C112.616 149.728 109.779 148.564 107.469 146.41C104.273 143.428 101.177 140.34 98.0809 137.256C96.7622 135.943 96.7195 134.475 97.825 133.35C98.895 132.257 100.491 132.233 101.774 133.453C104.295 135.858 106.811 138.278 109.204 140.81C111.407 143.142 113.928 144.595 117.198 144.857C121.389 145.197 124.851 147.114 127.702 150.159C127.94 150.414 128.221 150.633 128.413 150.807C137.488 141.797 146.535 132.816 155.667 123.75C155.322 123.368 154.935 122.944 154.551 122.519C151.917 119.615 150.417 116.241 150.349 112.3C150.306 109.768 150.317 107.231 150.328 104.699C150.338 101.664 149.315 99.0746 147.136 96.9204C143.4 93.2204 139.71 89.4781 135.977 85.7746C132.416 82.2409 128.406 81.4733 124.336 83.8432C126.316 85.6861 128.203 87.4441 130.087 89.2021C130.432 89.524 130.781 89.8495 131.097 90.1961C132.309 91.519 132.38 93.0365 131.299 94.1295C130.262 95.1801 128.573 95.1341 127.34 93.935C125.349 92.0001 123.394 90.0263 121.449 88.0455C120.888 87.4724 120.415 86.811 119.9 86.1919C119.725 86.2875 119.551 86.3865 119.381 86.482C119.381 87.7483 119.381 89.0147 119.381 90.281C119.381 94.7026 119.267 99.1241 119.406 103.542C119.626 110.433 113.75 115.095 107.32 113.156C107.113 113.096 106.889 113.1 106.495 113.054C106.495 114.5 106.392 115.855 106.513 117.189C107.188 124.681 101.301 129.962 93.5203 127.475C92.4965 130.747 90.4668 133.106 87.0863 134.175C86.7237 134.288 86.4287 134.666 86.1372 134.956C82.9629 138.129 79.753 141.27 76.632 144.496C73.5678 147.662 70.0522 149.753 65.52 150.071C62.1608 150.304 59.509 152.038 57.3442 154.751C57.4686 154.935 57.625 155.154 57.7743 155.377C59.6014 158.118 59.4059 160.729 57.1025 163.049C53.1497 167.032 49.1684 170.99 45.173 174.931C42.3683 177.693 39.258 177.651 36.4498 174.856C29.1662 167.605 21.8898 160.35 14.6098 153.095C14.1903 152.678 13.7531 152.275 13.387 151.815C12.445 150.63 12.4663 149.406 13.4971 148.313C14.5529 147.195 15.8077 147.224 17.0234 148.058C17.553 148.423 17.9689 148.946 18.4275 149.406C25.4622 156.41 32.4934 163.417 39.5281 170.417C39.9369 170.824 40.367 171.202 40.7225 171.531C45.0237 167.244 49.2395 163.046 53.3452 158.953C41.6183 147.333 29.7598 135.59 17.9832 123.924C14.0446 127.829 9.78961 132.052 5.28582 136.52C6.53707 137.698 7.9234 138.957 9.25285 140.273C10.6925 141.698 10.824 143.343 9.6652 144.461C8.4566 145.628 6.89965 145.519 5.47777 143.962C3.59023 141.9 1.82 139.721 0 137.592C0 136.647 0 135.706 0 134.762C1.12328 133.358 2.13992 131.851 3.38762 130.567C6.6757 127.171 10.0598 123.867 13.4118 120.539C16.4511 117.518 18.8683 117.337 22.4585 119.955C24.7868 117.974 26.1803 115.505 26.3082 112.406C26.454 108.88 26.4113 105.339 26.653 101.819C26.8592 98.8517 28.1922 96.2519 30.2575 94.1331C34.548 89.7363 38.9132 85.4138 43.2819 81.0912C45.7204 78.6788 48.8023 77.554 51.6994 77.172C51.3866 74.3599 50.9138 71.7069 50.8391 69.0469C50.7041 64.0983 50.8711 59.1427 50.7787 54.1941C50.6898 49.4789 52.4316 45.6056 55.7624 42.3514C57.4509 40.6995 59.15 39.0511 60.7745 37.3356C62.9571 35.0293 63.892 32.2738 63.5969 29.0124C60.778 28.641 58.5848 27.4702 57.8525 24.5485C57.6819 23.8728 57.625 23.1548 57.625 22.4579C57.6073 17.0919 57.6037 11.7295 57.6179 6.3635C57.6321 2.28859 59.932 0 63.9915 0C80.1049 0 96.2183 0 112.332 0C116.476 0 118.712 2.2037 118.719 6.29275C118.727 11.1848 118.719 16.0768 118.719 20.9723C118.719 26.4444 118.14 27.2792 113.046 29.108C112.662 32.4471 113.291 35.4962 115.574 38.135C118.236 41.2124 119.384 44.8451 119.384 48.8776C119.377 58.131 119.381 67.388 119.384 76.6414C119.384 77.172 119.27 77.7556 119.452 78.219C119.804 79.1245 120.259 79.8461 121.542 79.1882C128.395 75.6863 134.332 76.6591 139.77 82.0781C143.034 85.3324 146.251 88.6326 149.585 91.8126C152.848 94.9219 155.301 98.4096 155.542 103.022C158.596 103.468 159.737 104.356 159.527 106.043C159.321 107.716 158.063 108.512 155.777 108.385C155.265 112.778 155.802 116.817 159.467 119.877C163.832 117.252 165.503 117.454 169.096 121.03C172.278 124.2 175.498 127.334 178.619 130.56C179.864 131.847 180.884 133.35 182.004 134.755V137.585L182 137.592ZM62.4879 79.0679C62.527 78.4914 62.5945 77.9325 62.598 77.3771C62.6123 74.9011 62.5625 72.425 62.6229 69.9489C62.6549 68.6012 63.277 67.533 64.706 67.2323C65.9999 66.96 67.1196 67.3915 67.6528 68.6225C67.9372 69.2875 67.9194 70.1081 67.9194 70.8615C67.9336 86.482 67.9194 102.102 67.9443 117.723C67.9443 118.65 67.987 119.64 68.3069 120.493C68.9005 122.084 70.1731 122.845 71.9149 122.795C73.614 122.749 74.7124 121.837 75.2456 120.34C75.5122 119.594 75.4518 118.713 75.4518 117.893C75.4625 104.274 75.4589 90.6595 75.466 77.0411C75.466 76.1603 75.3914 75.2477 75.5869 74.4023C75.9175 72.9662 76.9412 72.1597 78.4377 72.3189C79.8276 72.4675 80.6843 73.3129 80.7483 74.7773C80.7874 75.6616 80.7874 76.5459 80.7874 77.4302C80.7874 93.1674 80.7803 108.908 80.7945 124.645C80.7945 127.532 82.2412 129.166 84.6371 129.141C86.9583 129.116 88.334 127.539 88.3624 124.727C88.3838 122.431 88.2664 120.132 88.2664 117.836C88.2558 104.041 88.2593 90.2492 88.2593 76.4539C88.2593 73.6666 89.1551 72.3295 91.0142 72.3295C92.8591 72.3295 93.6909 73.6171 93.6909 76.4858C93.6909 90.2209 93.6909 103.956 93.6909 117.691C93.6909 118.282 93.6696 118.873 93.7193 119.46C93.8829 121.32 95.2159 122.654 97.011 122.785C99.0656 122.933 100.637 121.815 101.014 119.856C101.156 119.113 101.17 118.335 101.17 117.571C101.181 104.013 101.181 90.4543 101.184 76.8961C101.184 76.132 101.156 75.3574 101.259 74.6004C101.465 73.0546 102.457 72.3613 103.971 72.4144C105.756 72.4745 106.513 73.6595 106.513 76.3301C106.513 85.1732 106.498 94.0128 106.498 102.856C106.498 103.62 106.502 104.391 106.598 105.148C106.825 106.973 108.237 108.208 110.082 108.257C112.609 108.328 114.049 106.627 114.049 103.521C114.056 85.3076 114.049 67.0908 114.056 48.8776C114.056 46.0619 113.263 43.5682 111.383 41.414C109.481 39.2315 108.297 36.6706 107.828 33.8372C107.572 32.2879 107.611 30.6926 107.504 28.8886C106.79 28.8886 106.161 28.8886 105.528 28.8886C99.7836 28.8886 94.0357 28.8957 88.2913 28.8745C87.5306 28.8745 86.5531 28.9877 86.059 28.5844C85.2841 27.9477 84.4665 26.9715 84.3385 26.0447C84.1608 24.789 85.117 23.8693 86.4642 23.6677C87.1609 23.5651 87.8825 23.5899 88.5899 23.5899C96.1116 23.5863 103.637 23.5899 111.159 23.5828C111.852 23.5828 112.545 23.5191 113.242 23.4837V5.4332H62.9357C62.9357 11.2201 62.9109 16.8691 62.9962 22.5181C63.0033 22.8824 63.8635 23.5297 64.3398 23.5474C67.4182 23.6429 70.5001 23.5722 73.5785 23.6182C74.3214 23.6288 75.3416 23.6252 75.7397 24.0674C76.3689 24.7678 76.927 25.8537 76.8879 26.7522C76.8346 28.0362 75.7504 28.7896 74.4209 28.8356C72.6685 28.8957 70.9089 28.8497 69.0711 28.8497C69.0214 29.4723 68.9752 29.8119 68.9716 30.1514C68.9503 34.6933 67.2049 38.4852 63.9773 41.651C62.2888 43.3064 60.611 44.9725 58.9687 46.6704C57.3229 48.3753 56.1783 50.3774 56.1534 52.7827C56.093 59.0295 56.0716 65.2798 56.1534 71.5266C56.1996 75.0001 59.1216 78.4489 62.4665 79.0715L62.4879 79.0679ZM26.3687 123.598C35.5966 132.76 44.6291 141.73 53.7433 150.782C56.9923 146.841 61.4214 145.006 66.6148 144.556C67.9407 144.443 69.4657 143.775 70.4255 142.866C73.6709 139.802 76.703 136.516 79.6072 133.531C78.1853 131.61 76.7102 129.615 75.1674 127.528C67.9159 129.65 62.6087 125.653 62.6052 117.737C62.6052 107.957 62.6052 98.1797 62.6016 88.3992C62.6016 87.7766 62.6016 87.1541 62.6016 86.5351C62.4665 86.4679 62.3314 86.3971 62.1999 86.3299C59.8183 88.7458 57.4509 91.1759 55.0514 93.5742C53.5158 95.1093 51.8629 95.3003 50.7076 94.1366C49.4955 92.9162 49.6768 91.4023 51.2835 89.8388C53.3452 87.8297 55.4389 85.8488 57.6215 83.7548C57.0563 83.4258 56.8181 83.2419 56.5515 83.1393C52.8582 81.735 49.5452 82.4354 46.7477 85.1414C42.8873 88.8767 39.1691 92.7606 35.298 96.4853C32.7991 98.8871 31.5514 101.703 31.6758 105.148C31.722 106.443 31.6118 107.744 31.6936 109.035C32.0491 114.716 30.7089 119.778 26.3722 123.602L26.3687 123.598ZM163.996 123.825C152.215 135.505 140.36 147.255 128.74 158.776C132.874 162.947 137.094 167.205 141.139 171.287C152.908 159.622 164.728 147.906 176.515 136.223C172.296 132.042 168.034 127.822 163.999 123.821L163.996 123.825Z" fill="black"/>
<path d="M45.6422 33.5861C47.1601 33.5578 48.3438 34.7003 48.3367 36.1895C48.3331 37.6009 47.2276 38.7929 45.8484 38.8707C44.4194 38.9521 43.0971 37.753 43.0295 36.3133C42.962 34.8807 44.1742 33.6179 45.6387 33.5896L45.6422 33.5861Z" fill="black"/>
<path d="M148.572 52.8535C148.561 54.2153 147.324 55.464 145.962 55.4887C144.512 55.5135 143.25 54.2472 143.257 52.7792C143.264 51.336 144.374 50.2359 145.845 50.2076C147.349 50.1793 148.582 51.3785 148.572 52.8535Z" fill="black"/>
<path d="M27.7549 60.4621C27.7158 62.0256 26.5818 63.0549 24.9822 62.9877C23.5675 62.924 22.4051 61.6966 22.462 60.3206C22.5153 58.9977 23.827 57.7243 25.1386 57.7207C26.6067 57.7137 27.794 58.9588 27.7549 60.4621Z" fill="black"/>
<path d="M154.117 62.4322C154.124 63.9073 152.873 65.1064 151.369 65.0675C149.962 65.0286 148.824 63.8507 148.824 62.4287C148.824 60.982 149.933 59.8288 151.362 59.7829C152.82 59.7369 154.11 60.9784 154.117 62.4322Z" fill="black"/>
<path d="M160.295 83.7335C160.263 85.1873 159.005 86.3545 157.53 86.298C156.044 86.2449 154.924 85.0104 154.995 83.5177C155.063 82.1311 156.264 80.9992 157.651 81.0133C159.087 81.0275 160.327 82.3009 160.295 83.7335Z" fill="black"/>
<path d="M18.1324 99.0817C19.5827 99.1207 20.738 100.419 20.6705 101.926C20.6029 103.404 19.5081 104.412 18.0044 104.381C16.5683 104.349 15.4095 103.203 15.4024 101.798C15.3917 100.383 16.739 99.0464 18.1324 99.0817Z" fill="black"/>
<path d="M158.063 72.8C158.077 74.2114 156.932 75.3716 155.493 75.407C153.89 75.4459 152.805 74.3988 152.798 72.8035C152.795 71.3427 153.883 70.1824 155.301 70.1365C156.73 70.0905 158.045 71.3604 158.063 72.8Z" fill="black"/>
<path d="M21.0544 67.5684C22.4692 67.5825 23.6315 68.7321 23.6671 70.1612C23.7062 71.6079 22.4549 72.8671 20.9833 72.853C19.5152 72.8424 18.431 71.7565 18.4097 70.2814C18.3884 68.7569 19.5614 67.5507 21.0544 67.5648V67.5684Z" fill="black"/>
<path d="M33.4035 51.2724C33.4284 52.7049 32.1665 53.989 30.7162 54.0031C29.3583 54.0173 28.1248 52.7969 28.0928 51.4103C28.0573 49.9211 29.2552 48.7255 30.7659 48.7362C32.2127 48.7468 33.3751 49.8645 33.4035 51.2688V51.2724Z" fill="black"/>
<path d="M138.772 41.4918C140.172 41.4388 141.402 42.5601 141.494 43.9714C141.598 45.5561 140.563 46.7022 138.988 46.7517C137.463 46.8012 136.205 45.641 136.194 44.173C136.184 42.843 137.435 41.5378 138.772 41.4883V41.4918Z" fill="black"/>
<path d="M21.0294 80.4793C21.0543 81.979 20.0306 83.0897 18.5696 83.1499C17.0411 83.2135 15.7685 82.0604 15.7543 80.6031C15.74 79.1705 17.0304 77.8617 18.4558 77.8617C19.8208 77.8617 21.0081 79.0679 21.0294 80.4828V80.4793Z" fill="black"/>
<path d="M121.218 33.2783C119.647 33.2571 118.574 32.1323 118.634 30.5688C118.687 29.1787 119.917 27.9937 121.279 28.0184C122.701 28.0467 123.941 29.3803 123.877 30.8164C123.813 32.2808 122.715 33.296 121.215 33.2783H121.218Z" fill="black"/>
<path d="M130.684 39.3341C129.145 39.373 127.965 38.2341 127.972 36.7166C127.979 35.2769 129.092 34.1273 130.524 34.0743C131.939 34.0247 133.269 35.3123 133.283 36.7449C133.297 38.1102 132.103 39.2988 130.684 39.3341Z" fill="black"/>
<path d="M20.1161 91.1121C20.1374 92.5447 19.0283 93.7014 17.5816 93.758C16.0211 93.8181 14.8693 92.7287 14.8551 91.1829C14.8409 89.7609 15.9606 88.537 17.3327 88.4698C18.7546 88.4026 20.0947 89.676 20.1161 91.1121Z" fill="black"/>
<path d="M22.9954 112.276C22.9492 113.683 21.5344 114.971 20.1481 114.868C18.7582 114.762 17.6811 113.542 17.7167 112.109C17.7558 110.539 18.9004 109.495 20.4822 109.591C21.9148 109.676 23.038 110.878 22.9918 112.276H22.9954Z" fill="black"/>
<path d="M57.3585 30.5086C57.3407 31.9731 56.0646 33.1969 54.6214 33.1368C53.2493 33.0767 52.094 31.8422 52.1118 30.4556C52.1331 28.9098 53.2706 27.8522 54.856 27.9052C56.3454 27.9512 57.3763 29.0265 57.3585 30.5122V30.5086Z" fill="black"/>
<path d="M158.123 92.1169C159.57 92.1169 160.675 93.2135 160.711 94.6779C160.75 96.2555 159.666 97.3768 158.109 97.3733C156.612 97.3697 155.393 96.1317 155.439 94.6673C155.485 93.3161 156.747 92.1169 158.123 92.1169Z" fill="black"/>
<path d="M37.6619 40.6111C39.1797 40.6111 40.2319 41.6227 40.2604 43.119C40.2888 44.6011 39.0802 45.871 37.6334 45.8674C36.2827 45.8639 35.0208 44.6365 34.9781 43.2888C34.9319 41.8137 36.1334 40.6146 37.6583 40.6146L37.6619 40.6111Z" fill="black"/>
<path d="M41.5578 156.756C43.0223 156.725 44.3979 158.069 44.4228 159.558C44.4477 161.093 43.1965 162.349 41.6324 162.367C40.0435 162.384 38.7887 161.189 38.7602 159.632C38.7318 158.154 40.0577 156.788 41.5578 156.753V156.756Z" fill="black"/>
<path d="M84.8609 164.842C83.3609 164.853 82.1061 163.633 82.1416 162.197C82.1736 160.852 83.432 159.611 84.7792 159.593C86.265 159.576 87.4559 160.782 87.4452 162.299C87.4345 163.732 86.3148 164.832 84.8609 164.842Z" fill="black"/>
<path d="M118.623 156.537C118.595 157.963 117.255 159.211 115.812 159.155C114.397 159.098 113.306 157.927 113.313 156.473C113.32 154.967 114.546 153.81 116.064 153.877C117.465 153.937 118.652 155.172 118.623 156.541V156.537Z" fill="black"/>
<path d="M108.489 160.064C108.457 161.486 107.295 162.642 105.89 162.656C104.462 162.671 103.15 161.33 103.21 159.919C103.271 158.412 104.504 157.315 106.047 157.39C107.522 157.46 108.528 158.56 108.493 160.064H108.489Z" fill="black"/>
<path d="M95.4079 164.506C93.9505 164.492 92.8165 163.392 92.7881 161.96C92.7596 160.478 93.986 159.232 95.4683 159.24C96.8973 159.247 98.1557 160.58 98.0952 162.023C98.0384 163.424 96.8511 164.517 95.4079 164.506Z" fill="black"/>
<path d="M63.9703 160.888C62.5306 160.86 61.3611 159.576 61.418 158.076C61.4749 156.587 62.5555 155.582 64.0662 155.621C65.5343 155.656 66.6683 156.767 66.6789 158.182C66.6932 159.615 65.3886 160.913 63.9667 160.888H63.9703Z" fill="black"/>
<path d="M74.1757 163.693C72.8427 163.651 71.563 162.352 71.563 161.047C71.563 159.544 72.7716 158.401 74.325 158.44C75.921 158.479 76.9412 159.586 76.8595 161.192C76.7884 162.604 75.5727 163.735 74.1757 163.693Z" fill="black"/>
<path d="M62.4878 79.068C59.1428 78.4454 56.2209 74.9966 56.1747 71.523C56.0894 65.2763 56.1142 59.026 56.1747 52.7792C56.1996 50.3739 57.3442 48.3718 58.99 46.6668C60.6323 44.969 62.3101 43.3029 63.9985 41.6475C67.2262 38.4817 68.968 34.6862 68.9929 30.1479C68.9929 29.8084 69.0426 29.4688 69.0924 28.8462C70.9337 28.8462 72.6898 28.8922 74.4422 28.8321C75.7717 28.7861 76.8594 28.0327 76.9092 26.7486C76.9447 25.8502 76.3902 24.7642 75.761 24.0639C75.3629 23.6217 74.3427 23.6253 73.5998 23.6146C70.5214 23.5687 67.4395 23.6394 64.3611 23.5439C63.8812 23.5297 63.021 22.8824 63.0174 22.5146C62.9321 16.8656 62.957 11.2166 62.957 5.42969H113.263V23.4873C112.563 23.5227 111.873 23.5863 111.18 23.5863C103.658 23.5934 96.1329 23.5863 88.6112 23.5934C87.9003 23.5934 87.1822 23.5687 86.4855 23.6712C85.1383 23.8729 84.1821 24.7925 84.3598 26.0483C84.4913 26.975 85.3053 27.9548 86.0803 28.588C86.5744 28.9912 87.5519 28.8745 88.3126 28.8781C94.057 28.8993 99.8049 28.8887 105.549 28.8922C106.178 28.8922 106.811 28.8922 107.526 28.8922C107.632 30.6962 107.593 32.2915 107.849 33.8408C108.318 36.6741 109.502 39.2351 111.404 41.4176C113.281 43.5718 114.077 46.069 114.077 48.8812C114.066 67.0944 114.077 85.3112 114.07 103.524C114.07 106.63 112.627 108.332 110.103 108.261C108.258 108.208 106.85 106.977 106.619 105.152C106.523 104.395 106.52 103.623 106.52 102.859C106.52 94.0163 106.53 85.1768 106.534 76.3337C106.534 73.6631 105.78 72.4816 103.992 72.418C102.474 72.3649 101.486 73.0617 101.28 74.604C101.181 75.3574 101.205 76.1321 101.205 76.8996C101.198 90.4579 101.202 104.016 101.191 117.574C101.191 118.338 101.181 119.113 101.035 119.859C100.658 121.823 99.0869 122.94 97.0323 122.788C95.2371 122.657 93.9041 121.324 93.7406 119.463C93.6908 118.876 93.7122 118.285 93.7122 117.695C93.7122 103.96 93.7122 90.2244 93.7122 76.4893C93.7122 73.6171 92.8804 72.3295 91.0355 72.3331C89.1764 72.3331 88.2806 73.6701 88.2806 76.4575C88.2806 90.2527 88.2771 104.044 88.2877 117.84C88.2877 120.135 88.405 122.435 88.3837 124.73C88.3553 127.542 86.9796 129.123 84.6584 129.145C82.2625 129.169 80.8158 127.535 80.8158 124.649C80.798 108.912 80.8087 93.171 80.8087 77.4338C80.8087 76.5495 80.8087 75.6651 80.7696 74.7808C80.7056 73.3164 79.8489 72.471 78.459 72.3224C76.9625 72.1633 75.9387 72.9698 75.6082 74.4059C75.4126 75.2513 75.4908 76.1639 75.4873 77.0447C75.4802 90.663 75.4873 104.278 75.4731 117.896C75.4731 118.717 75.5335 119.598 75.2669 120.344C74.7337 121.837 73.6353 122.753 71.9362 122.799C70.1908 122.845 68.9218 122.088 68.3282 120.496C68.0118 119.644 67.9691 118.653 67.9656 117.726C67.9442 102.106 67.9549 86.4856 67.9407 70.8651C67.9407 70.1152 67.9585 69.291 67.6741 68.626C67.1444 67.3915 66.0212 66.9635 64.7273 67.2359C63.2983 67.5366 62.6798 68.6048 62.6442 69.9525C62.5838 72.4286 62.63 74.9046 62.6193 77.3807C62.6193 77.9396 62.5482 78.4949 62.5091 79.0715L62.4878 79.068ZM71.7869 11.6588C70.1624 11.6375 68.9716 12.7871 68.9573 14.386C68.9431 15.9636 70.1482 17.2335 71.7016 17.2653C73.1412 17.2971 74.5737 15.9105 74.5951 14.4673C74.62 12.9499 73.3474 11.6765 71.7869 11.6552V11.6588Z" fill="#C4D3ED"/>
<path d="M26.3651 123.598C30.7018 119.774 32.042 114.713 31.6865 109.032C31.6047 107.741 31.7149 106.439 31.6687 105.144C31.5479 101.699 32.792 98.8835 35.2909 96.4817C39.162 92.757 42.8802 88.8731 46.7406 85.1377C49.5381 82.4317 52.8511 81.7314 56.5444 83.1357C56.811 83.2382 57.0492 83.4222 57.6144 83.7511C55.4318 85.8416 53.3381 87.8225 51.2764 89.8352C49.6697 91.4022 49.4884 92.9126 50.7005 94.1329C51.8558 95.2967 53.5087 95.1092 55.0443 93.5705C57.4438 91.1723 59.8112 88.7422 62.1928 86.3262C62.3279 86.3935 62.463 86.4642 62.5945 86.5314C62.5945 87.154 62.5945 87.7765 62.5945 88.3955C62.5945 98.176 62.5945 107.953 62.5981 117.733C62.5981 125.65 67.9088 129.647 75.1603 127.524C76.7031 129.608 78.1782 131.603 79.6001 133.527C76.6959 136.513 73.6602 139.799 70.4184 142.862C69.4551 143.771 67.9336 144.436 66.6077 144.553C61.4143 145.002 56.9888 146.841 53.7362 150.778C44.622 141.727 35.5895 132.76 26.3616 123.595L26.3651 123.598Z" fill="#798A91"/>
<path d="M163.992 123.825C168.026 127.822 172.288 132.045 176.508 136.226C164.721 147.91 152.901 159.625 141.132 171.291C137.086 167.209 132.867 162.95 128.733 158.78C140.357 147.255 152.208 135.505 163.988 123.828L163.992 123.825ZM167.49 135.43C167.525 133.839 166.373 132.632 164.781 132.601C163.199 132.572 161.93 133.761 161.902 135.3C161.873 136.799 163.16 138.154 164.66 138.2C166.182 138.246 167.454 137.001 167.49 135.427V135.43Z" fill="#FFE784"/>
<path d="M71.7833 11.6587C73.3438 11.6764 74.6164 12.9498 74.5915 14.4708C74.5666 15.914 73.1341 17.3006 71.698 17.2688C70.1446 17.2369 68.9395 15.9671 68.9537 14.3894C68.968 12.7871 70.1588 11.641 71.7833 11.6622V11.6587Z" fill="black"/>
<path d="M167.49 135.43C167.454 137.001 166.182 138.25 164.66 138.204C163.16 138.158 161.873 136.803 161.902 135.303C161.93 133.761 163.199 132.572 164.781 132.604C166.374 132.636 167.525 133.839 167.49 135.434V135.43Z" fill="black"/>
</g>
<defs>
<clipPath id="clip0_61_154">
<rect width="182" height="177" fill="white"/>
</clipPath>
</defs>
</svg>
