<svg width="48" height="49" viewBox="0 0 48 49" fill="none" xmlns="http://www.w3.org/2000/svg">
<g clip-path="url(#clip0_54_23)">
<path d="M47.9636 24.5C47.9636 29.1943 46.6064 33.5695 44.2657 37.2793C44.2657 37.2976 44.2657 37.3067 44.2657 37.3249C46.6247 33.6151 47.9909 29.2125 47.9909 24.5C48 11.2649 37.2433 0.5 24.0182 0.5C24.0182 0.5 24.0091 0.5 24 0.5C37.2159 0.5 47.9636 11.274 47.9636 24.5Z" fill="#062943"/>
<path d="M4.5542 24.5C4.5542 27.827 5.40126 30.9626 6.87678 33.7062C8.16103 31.3363 10.7295 29.7047 13.4255 29.8688C14.4548 29.9326 15.5204 30.917 16.3948 31.6918C17.5151 32.6853 18.4441 32.9588 19.528 31.7374C21.3314 29.7138 23.399 29.5497 25.8218 30.6709C28.2901 31.8103 29.7474 33.5877 30.0388 36.2676C30.2119 37.8809 30.3121 39.5034 30.3212 41.1259C30.3212 41.9098 30.221 42.5114 30.0024 42.9854C30.7219 42.7484 31.4233 42.4658 32.1064 42.1468C31.9242 42.1468 31.7512 42.1468 31.5781 42.1468C31.1773 37.7077 31.9698 32.9953 27.3792 30.206C30.303 28.1734 31.651 30.9808 33.6548 31.9926C34.1102 31.6736 34.6202 31.3636 35.0665 30.9808C36.3235 29.8779 37.5257 29.0758 39.402 29.8323C40.413 30.2425 41.3876 30.68 42.1709 31.2816C42.9633 29.1669 43.4096 26.8881 43.4096 24.5091C43.4096 13.7898 34.6931 5.06665 23.9819 5.06665C13.2707 5.06665 4.5542 13.7807 4.5542 24.5ZM33.846 17.5725C36.9337 17.6637 39.4202 20.38 39.3565 23.5703C39.2927 26.8426 36.6149 29.5315 33.509 29.4677C30.3849 29.3948 27.8347 26.6056 27.9257 23.3333C28.0077 20.0245 30.64 17.4723 33.846 17.5725ZM18.1527 29.6227C14.473 29.6774 11.6221 26.7879 11.5948 22.9687C11.5675 19.1403 14.3728 16.1597 18.007 16.1415C21.5774 16.1141 24.5922 19.2406 24.5466 22.914C24.5011 26.6147 21.6866 29.568 18.1527 29.6227Z" fill="#062943"/>
<path d="M24 48.4999C24 48.4999 24.0091 48.4999 24.0182 48.4999C30.2846 48.4999 35.9954 46.0753 40.2763 42.1194C40.2672 42.1194 40.2581 42.1194 40.2398 42.1194C35.9681 46.0662 30.2573 48.4908 24 48.4999Z" fill="#062943"/>
<path d="M30.0388 36.2676C29.7473 33.5878 28.29 31.8103 25.8217 30.671C23.3989 29.5498 21.3314 29.723 19.5279 31.7374C18.4441 32.9588 17.5059 32.6854 16.3947 31.6919C15.5295 30.9171 14.4547 29.9326 13.4255 29.8688C10.7295 29.7048 8.17007 31.3455 6.87671 33.7063C10.1648 39.7952 16.5951 43.9425 23.9818 43.9425C26.0858 43.9425 28.1078 43.5961 30.0114 42.9763C30.23 42.5023 30.3302 41.9007 30.3302 41.1168C30.3211 39.4944 30.2209 37.8719 30.0479 36.2585L30.0388 36.2676Z" fill="#F8F7FB"/>
<path d="M35.0664 30.9717C34.6201 31.3636 34.1101 31.6644 33.6547 31.9835C31.66 30.9717 30.312 28.1642 27.3792 30.1969C31.9697 32.977 31.1773 37.6986 31.578 42.1377C31.7602 42.1377 31.9332 42.1377 32.1063 42.1377C36.7332 39.9956 40.3674 36.0852 42.1617 31.2725C41.3693 30.6709 40.4038 30.2334 39.3928 29.8232C37.5165 29.0575 36.3234 29.8688 35.0573 30.9717H35.0664Z" fill="#F8F7FB"/>
<path d="M17.9978 16.1414C14.3545 16.1688 11.5583 19.1494 11.5856 22.9686C11.613 26.7878 14.4638 29.6773 18.1435 29.6226C21.6775 29.5679 24.4919 26.6147 24.5375 22.9139C24.583 19.2406 21.5682 16.1232 17.9978 16.1414Z" fill="#F8F7FB"/>
<path d="M33.5088 29.4677C36.6238 29.5406 39.2925 26.8426 39.3563 23.5703C39.42 20.3709 36.9244 17.6637 33.8458 17.5725C30.6306 17.4723 28.0075 20.0336 27.9255 23.3333C27.8435 26.5965 30.3847 29.3948 33.5088 29.4677Z" fill="#F8F7FB"/>
<path d="M44.2748 37.2793C46.6156 33.5786 47.9727 29.1943 47.9727 24.5C47.9636 11.274 37.2159 0.509115 24 0.5C24 0.5 23.9909 0.5 23.9818 0.5C10.7567 0.5 0 11.2649 0 24.5C0 30.4521 2.17685 35.8938 5.77457 40.0959C7.1408 41.691 8.7074 43.1039 10.4471 44.2979C14.2998 46.9504 18.9632 48.5 23.9818 48.5C23.9818 48.5 23.9909 48.5 24 48.5C30.2664 48.5 35.9681 46.0754 40.2398 42.1194C41.7882 40.6884 43.1453 39.0568 44.2657 37.2702L44.2748 37.2793ZM43.4186 24.5C43.4186 26.8881 42.9632 29.1578 42.1799 31.2725C40.3856 36.0853 36.7514 39.9865 32.1245 42.1377C31.4414 42.4567 30.7491 42.7393 30.0205 42.9763C28.1169 43.5961 26.0949 43.9425 23.9909 43.9425C16.6042 43.9425 10.1738 39.7951 6.88577 33.7062C5.40114 30.9626 4.56319 27.827 4.56319 24.5C4.55408 13.7807 13.2706 5.05754 23.9818 5.05754C34.693 5.05754 43.4095 13.7807 43.4095 24.5H43.4186Z" fill="#062943"/>
</g>
<defs>
<clipPath id="clip0_54_23">
<rect width="48" height="48" fill="white" transform="translate(0 0.5)"/>
</clipPath>
</defs>
</svg>
