<svg width="20" height="17" viewBox="0 0 20 17" fill="none" xmlns="http://www.w3.org/2000/svg">
<path d="M8.45383 11.0423C7.04288 12.567 5.6283 13.9504 4.39247 15.4788C3.45335 16.6404 2.38176 16.8466 0.842868 16.5181C3.05048 14.131 5.15375 11.858 7.34049 9.49469C5.19095 6.45794 3.0532 3.43853 0.717651 0.138984C2.99876 0.138984 5.02309 0.106135 7.04378 0.174571C7.34503 0.184608 7.68347 0.630814 7.91485 0.942883C8.97556 2.37731 10.0036 3.83546 11.1396 5.41954C12.4825 3.97872 13.7437 2.61638 15.015 1.26408C15.8413 0.384443 16.9782 0.0608146 18.4258 0.293194C16.6854 2.18113 15.0876 4.05081 13.3345 5.75989C12.3682 6.70249 12.3872 7.3394 13.1848 8.3769C15.0014 10.7384 16.6782 13.2094 18.4058 15.6394C18.5836 15.8903 18.727 16.1659 19.0164 16.6458C16.8361 16.6458 14.8489 16.6851 12.8654 16.6084C12.5197 16.5947 12.1196 16.1476 11.8682 15.8082C10.7277 14.2679 9.63068 12.6939 8.45383 11.0432V11.0423ZM15.4097 14.6146C12.6286 10.711 9.87295 6.94247 7.24159 3.08814C6.48032 1.97308 5.67276 1.81522 4.40245 2.15101C7.13271 5.99349 9.83574 9.68814 12.4018 13.475C13.1685 14.6064 13.9733 15.0317 15.4097 14.6146Z" fill="black"/>
</svg>
